<svg width="127" height="26" viewBox="0 0 127 26" fill="none" xmlns="http://www.w3.org/2000/svg">
<rect width="127" height="26" fill="#5A5A5A"/>
<g id="Notifications">
<rect width="1440" height="1117" transform="translate(-279 -295)" fill="#F4F9FF"/>
<g id="Frame 1171275987">
<g id="Frame 1171275983">
<g id="Frame 1171275982">
<path id="You ordered a experience at The Capital Grille" d="M-128.572 8.40909H-126.328L-122.908 14.3601H-122.768L-119.348 8.40909H-117.104L-121.854 16.3608V21.5H-123.822V16.3608L-128.572 8.40909ZM-112.874 21.6982C-113.795 21.6982 -114.598 21.4872 -115.284 21.0653C-115.97 20.6435 -116.503 20.0533 -116.882 19.2947C-117.262 18.5362 -117.451 17.6499 -117.451 16.6357C-117.451 15.6172 -117.262 14.7266 -116.882 13.9638C-116.503 13.201 -115.97 12.6087 -115.284 12.1868C-114.598 11.7649 -113.795 11.554 -112.874 11.554C-111.954 11.554 -111.151 11.7649 -110.465 12.1868C-109.779 12.6087 -109.246 13.201 -108.867 13.9638C-108.487 14.7266 -108.298 15.6172 -108.298 16.6357C-108.298 17.6499 -108.487 18.5362 -108.867 19.2947C-109.246 20.0533 -109.779 20.6435 -110.465 21.0653C-111.151 21.4872 -111.954 21.6982 -112.874 21.6982ZM-112.868 20.0938C-112.271 20.0938 -111.777 19.9361 -111.385 19.6207C-110.993 19.3054 -110.703 18.8857 -110.516 18.3615C-110.324 17.8374 -110.228 17.2599 -110.228 16.6293C-110.228 16.0028 -110.324 15.4276 -110.516 14.9034C-110.703 14.375 -110.993 13.951 -111.385 13.6314C-111.777 13.3118 -112.271 13.152 -112.868 13.152C-113.469 13.152 -113.968 13.3118 -114.364 13.6314C-114.756 13.951 -115.048 14.375 -115.24 14.9034C-115.427 15.4276 -115.521 16.0028 -115.521 16.6293C-115.521 17.2599 -115.427 17.8374 -115.24 18.3615C-115.048 18.8857 -114.756 19.3054 -114.364 19.6207C-113.968 19.9361 -113.469 20.0938 -112.868 20.0938ZM-99.945 17.4283V11.6818H-98.0273V21.5H-99.9066V19.7997H-100.009C-100.235 20.3239 -100.597 20.7607 -101.096 21.1101C-101.59 21.4553 -102.206 21.6278 -102.943 21.6278C-103.574 21.6278 -104.132 21.4893 -104.618 21.2124C-105.099 20.9311 -105.478 20.5156 -105.755 19.9659C-106.028 19.4162 -106.164 18.7365 -106.164 17.9268V11.6818H-104.253V17.6967C-104.253 18.3658 -104.068 18.8984 -103.697 19.2947C-103.326 19.6911 -102.845 19.8892 -102.252 19.8892C-101.895 19.8892 -101.539 19.7997 -101.185 19.6207C-100.827 19.4418 -100.531 19.1712 -100.297 18.8089C-100.058 18.4467 -99.9407 17.9865 -99.945 17.4283ZM-86.56 21.6982C-87.4805 21.6982 -88.2837 21.4872 -88.9698 21.0653C-89.6559 20.6435 -90.1886 20.0533 -90.5678 19.2947C-90.9471 18.5362 -91.1367 17.6499 -91.1367 16.6357C-91.1367 15.6172 -90.9471 14.7266 -90.5678 13.9638C-90.1886 13.201 -89.6559 12.6087 -88.9698 12.1868C-88.2837 11.7649 -87.4805 11.554 -86.56 11.554C-85.6396 11.554 -84.8363 11.7649 -84.1502 12.1868C-83.4641 12.6087 -82.9315 13.201 -82.5522 13.9638C-82.1729 14.7266 -81.9833 15.6172 -81.9833 16.6357C-81.9833 17.6499 -82.1729 18.5362 -82.5522 19.2947C-82.9315 20.0533 -83.4641 20.6435 -84.1502 21.0653C-84.8363 21.4872 -85.6396 21.6982 -86.56 21.6982ZM-86.5536 20.0938C-85.957 20.0938 -85.4627 19.9361 -85.0707 19.6207C-84.6786 19.3054 -84.3888 18.8857 -84.2013 18.3615C-84.0096 17.8374 -83.9137 17.2599 -83.9137 16.6293C-83.9137 16.0028 -84.0096 15.4276 -84.2013 14.9034C-84.3888 14.375 -84.6786 13.951 -85.0707 13.6314C-85.4627 13.3118 -85.957 13.152 -86.5536 13.152C-87.1545 13.152 -87.6531 13.3118 -88.0494 13.6314C-88.4414 13.951 -88.7333 14.375 -88.9251 14.9034C-89.1126 15.4276 -89.2063 16.0028 -89.2063 16.6293C-89.2063 17.2599 -89.1126 17.8374 -88.9251 18.3615C-88.7333 18.8857 -88.4414 19.3054 -88.0494 19.6207C-87.6531 19.9361 -87.1545 20.0938 -86.5536 20.0938ZM-79.85 21.5V11.6818H-78.0027V13.2415H-77.9004C-77.7214 12.7131 -77.4061 12.2976 -76.9544 11.995C-76.4984 11.6882 -75.9828 11.5348 -75.4075 11.5348C-75.2882 11.5348 -75.1475 11.5391 -74.9856 11.5476C-74.8194 11.5561 -74.6895 11.5668 -74.5957 11.5795V13.4077C-74.6724 13.3864 -74.8088 13.3629 -75.0048 13.3374C-75.2008 13.3075 -75.3968 13.2926 -75.5929 13.2926C-76.0446 13.2926 -76.4473 13.3885 -76.801 13.5803C-77.1504 13.7678 -77.4274 14.0298 -77.6319 14.3665C-77.8365 14.6989 -77.9387 15.0781 -77.9387 15.5043V21.5H-79.85ZM-69.6179 21.6918C-70.4105 21.6918 -71.1179 21.4893 -71.7401 21.0845C-72.358 20.6754 -72.8437 20.0937 -73.1974 19.3395C-73.5469 18.581 -73.7216 17.6712 -73.7216 16.6101C-73.7216 15.549 -73.5447 14.6413 -73.1911 13.8871C-72.8331 13.1328 -72.343 12.5554 -71.7209 12.1548C-71.0987 11.7543 -70.3935 11.554 -69.6051 11.554C-68.9957 11.554 -68.5057 11.6562 -68.1349 11.8608C-67.7599 12.0611 -67.4702 12.2955 -67.2656 12.5639C-67.0568 12.8324 -66.8949 13.0689 -66.7798 13.2734H-66.6648V8.40909H-64.7536V21.5H-66.62V19.9723H-66.7798C-66.8949 20.1811 -67.0611 20.4197 -67.2784 20.6882C-67.4915 20.9567 -67.7855 21.1911 -68.1605 21.3913C-68.5355 21.5916 -69.0213 21.6918 -69.6179 21.6918ZM-69.196 20.0618C-68.6463 20.0618 -68.1818 19.9169 -67.8026 19.6271C-67.419 19.3331 -67.1293 18.9261 -66.9332 18.4062C-66.733 17.8864 -66.6328 17.2812 -66.6328 16.5909C-66.6328 15.9091 -66.7308 15.3125 -66.9268 14.8011C-67.1229 14.2898 -67.4105 13.8913 -67.7898 13.6058C-68.169 13.3203 -68.6378 13.1776 -69.196 13.1776C-69.7713 13.1776 -70.2507 13.3267 -70.6342 13.625C-71.0178 13.9233 -71.3075 14.3303 -71.5036 14.8459C-71.6953 15.3615 -71.7912 15.9432 -71.7912 16.5909C-71.7912 17.2472 -71.6932 17.8374 -71.4972 18.3615C-71.3011 18.8857 -71.0114 19.3011 -70.6278 19.608C-70.2401 19.9105 -69.7628 20.0618 -69.196 20.0618ZM-57.7942 21.6982C-58.7615 21.6982 -59.5946 21.4915 -60.2935 21.0781C-60.9881 20.6605 -61.525 20.0746 -61.9043 19.3203C-62.2793 18.5618 -62.4668 17.6733 -62.4668 16.6548C-62.4668 15.6491 -62.2793 14.7628 -61.9043 13.9957C-61.525 13.2287 -60.9966 12.63 -60.3191 12.1996C-59.6373 11.7692 -58.8404 11.554 -57.9284 11.554C-57.3745 11.554 -56.8375 11.6456 -56.3176 11.8288C-55.7978 12.0121 -55.3311 12.2997 -54.9178 12.6918C-54.5044 13.0838 -54.1784 13.593 -53.9398 14.2195C-53.7012 14.8416 -53.5819 15.598 -53.5819 16.4886V17.1662H-61.3865V15.7344H-55.4547C-55.4547 15.2315 -55.557 14.7862 -55.7615 14.3984C-55.9661 14.0064 -56.2537 13.6974 -56.6245 13.4716C-56.9909 13.2457 -57.4213 13.1328 -57.9157 13.1328C-58.4526 13.1328 -58.9213 13.2649 -59.3219 13.5291C-59.7182 13.7891 -60.025 14.13 -60.2424 14.5518C-60.4554 14.9695 -60.562 15.4233 -60.562 15.9134V17.032C-60.562 17.6882 -60.4469 18.2464 -60.2168 18.7067C-59.9824 19.1669 -59.6564 19.5185 -59.2388 19.7614C-58.8212 20 -58.3333 20.1193 -57.775 20.1193C-57.4128 20.1193 -57.0826 20.0682 -56.7843 19.9659C-56.486 19.8594 -56.2282 19.7017 -56.0108 19.4929C-55.7935 19.2841 -55.6273 19.0263 -55.5123 18.7195L-53.7033 19.0455C-53.8482 19.5781 -54.1081 20.0447 -54.4831 20.4453C-54.8539 20.8416 -55.3205 21.1506 -55.883 21.3722C-56.4412 21.5895 -57.0783 21.6982 -57.7942 21.6982ZM-51.4613 21.5V11.6818H-49.614V13.2415H-49.5117C-49.3327 12.7131 -49.0174 12.2976 -48.5657 11.995C-48.1097 11.6882 -47.5941 11.5348 -47.0188 11.5348C-46.8995 11.5348 -46.7589 11.5391 -46.5969 11.5476C-46.4308 11.5561 -46.3008 11.5668 -46.207 11.5795V13.4077C-46.2837 13.3864 -46.4201 13.3629 -46.6161 13.3374C-46.8121 13.3075 -47.0082 13.2926 -47.2042 13.2926C-47.6559 13.2926 -48.0586 13.3885 -48.4123 13.5803C-48.7617 13.7678 -49.0387 14.0298 -49.2433 14.3665C-49.4478 14.6989 -49.5501 15.0781 -49.5501 15.5043V21.5H-51.4613ZM-40.6731 21.6982C-41.6404 21.6982 -42.4735 21.4915 -43.1724 21.0781C-43.867 20.6605 -44.4039 20.0746 -44.7832 19.3203C-45.1582 18.5618 -45.3457 17.6733 -45.3457 16.6548C-45.3457 15.6491 -45.1582 14.7628 -44.7832 13.9957C-44.4039 13.2287 -43.8755 12.63 -43.198 12.1996C-42.5162 11.7692 -41.7193 11.554 -40.8074 11.554C-40.2534 11.554 -39.7164 11.6456 -39.1966 11.8288C-38.6767 12.0121 -38.21 12.2997 -37.7967 12.6918C-37.3833 13.0838 -37.0574 13.593 -36.8187 14.2195C-36.5801 14.8416 -36.4608 15.598 -36.4608 16.4886V17.1662H-44.2654V15.7344H-38.3336C-38.3336 15.2315 -38.4359 14.7862 -38.6404 14.3984C-38.845 14.0064 -39.1326 13.6974 -39.5034 13.4716C-39.8699 13.2457 -40.3002 13.1328 -40.7946 13.1328C-41.3315 13.1328 -41.8002 13.2649 -42.2008 13.5291C-42.5971 13.7891 -42.9039 14.13 -43.1213 14.5518C-43.3343 14.9695 -43.4409 15.4233 -43.4409 15.9134V17.032C-43.4409 17.6882 -43.3258 18.2464 -43.0957 18.7067C-42.8613 19.1669 -42.5353 19.5185 -42.1177 19.7614C-41.7001 20 -41.2122 20.1193 -40.6539 20.1193C-40.2917 20.1193 -39.9615 20.0682 -39.6632 19.9659C-39.3649 19.8594 -39.1071 19.7017 -38.8897 19.4929C-38.6724 19.2841 -38.5062 19.0263 -38.3912 18.7195L-36.5822 19.0455C-36.7271 19.5781 -36.987 20.0447 -37.362 20.4453C-37.7328 20.8416 -38.1994 21.1506 -38.7619 21.3722C-39.3201 21.5895 -39.9572 21.6982 -40.6731 21.6982ZM-30.6648 21.6918C-31.4574 21.6918 -32.1648 21.4893 -32.7869 21.0845C-33.4048 20.6754 -33.8906 20.0937 -34.2443 19.3395C-34.5937 18.581 -34.7685 17.6712 -34.7685 16.6101C-34.7685 15.549 -34.5916 14.6413 -34.2379 13.8871C-33.88 13.1328 -33.3899 12.5554 -32.7678 12.1548C-32.1456 11.7543 -31.4403 11.554 -30.652 11.554C-30.0426 11.554 -29.5526 11.6562 -29.1818 11.8608C-28.8068 12.0611 -28.517 12.2955 -28.3125 12.5639C-28.1037 12.8324 -27.9418 13.0689 -27.8267 13.2734H-27.7116V8.40909H-25.8004V21.5H-27.6669V19.9723H-27.8267C-27.9418 20.1811 -28.108 20.4197 -28.3253 20.6882C-28.5384 20.9567 -28.8324 21.1911 -29.2074 21.3913C-29.5824 21.5916 -30.0682 21.6918 -30.6648 21.6918ZM-30.2429 20.0618C-29.6932 20.0618 -29.2287 19.9169 -28.8494 19.6271C-28.4659 19.3331 -28.1761 18.9261 -27.9801 18.4062C-27.7798 17.8864 -27.6797 17.2812 -27.6797 16.5909C-27.6797 15.9091 -27.7777 15.3125 -27.9737 14.8011C-28.1697 14.2898 -28.4574 13.8913 -28.8366 13.6058C-29.2159 13.3203 -29.6847 13.1776 -30.2429 13.1776C-30.8182 13.1776 -31.2976 13.3267 -31.6811 13.625C-32.0646 13.9233 -32.3544 14.3303 -32.5504 14.8459C-32.7422 15.3615 -32.8381 15.9432 -32.8381 16.5909C-32.8381 17.2472 -32.7401 17.8374 -32.544 18.3615C-32.348 18.8857 -32.0582 19.3011 -31.6747 19.608C-31.2869 19.9105 -30.8097 20.0618 -30.2429 20.0618ZM-15.4517 21.7173C-16.0739 21.7173 -16.6364 21.6023 -17.1392 21.3722C-17.642 21.1378 -18.0405 20.799 -18.3345 20.3558C-18.6243 19.9126 -18.7692 19.3693 -18.7692 18.7259C-18.7692 18.1719 -18.6626 17.7159 -18.4496 17.358C-18.2365 17 -17.9489 16.7166 -17.5866 16.5078C-17.2244 16.299 -16.8196 16.1413 -16.3722 16.0348C-15.9247 15.9283 -15.4687 15.8473 -15.0043 15.7919C-14.4162 15.7237 -13.9389 15.6683 -13.5724 15.6257C-13.206 15.5788 -12.9396 15.5043 -12.7734 15.402C-12.6072 15.2997 -12.5241 15.1335 -12.5241 14.9034V14.8587C-12.5241 14.3004 -12.6818 13.8679 -12.9972 13.5611C-13.3082 13.2543 -13.7727 13.1009 -14.3906 13.1009C-15.0341 13.1009 -15.5412 13.2436 -15.9119 13.5291C-16.2784 13.8104 -16.532 14.1236 -16.6726 14.4688L-18.4688 14.0597C-18.2557 13.4631 -17.9446 12.9815 -17.5355 12.6151C-17.1222 12.2443 -16.647 11.9759 -16.1101 11.8097C-15.5732 11.6392 -15.0085 11.554 -14.4162 11.554C-14.0241 11.554 -13.6087 11.6009 -13.1697 11.6946C-12.7266 11.7841 -12.3132 11.9503 -11.9297 12.1932C-11.5419 12.4361 -11.2244 12.7834 -10.9773 13.2351C-10.7301 13.6825 -10.6065 14.2642 -10.6065 14.9801V21.5H-12.473V20.1577H-12.5497C-12.6733 20.4048 -12.8587 20.6477 -13.1058 20.8864C-13.353 21.125 -13.6705 21.3232 -14.0582 21.4808C-14.446 21.6385 -14.9105 21.7173 -15.4517 21.7173ZM-15.0362 20.1832C-14.5078 20.1832 -14.0561 20.0788 -13.6811 19.87C-13.3018 19.6612 -13.0142 19.3885 -12.8182 19.0518C-12.6179 18.7109 -12.5178 18.3466 -12.5178 17.9588V16.6932C-12.5859 16.7614 -12.718 16.8253 -12.9141 16.8849C-13.1058 16.9403 -13.3253 16.9893 -13.5724 17.032C-13.8196 17.0703 -14.0604 17.1065 -14.2947 17.1406C-14.5291 17.1705 -14.7251 17.196 -14.8828 17.2173C-15.2536 17.2642 -15.5923 17.343 -15.8991 17.4538C-16.2017 17.5646 -16.4446 17.7244 -16.6278 17.9332C-16.8068 18.1378 -16.8963 18.4105 -16.8963 18.7514C-16.8963 19.2244 -16.7216 19.5824 -16.3722 19.8253C-16.0227 20.0639 -15.5774 20.1832 -15.0362 20.1832ZM139.081 21.6982C138.113 21.6982 137.28 21.4915 136.581 21.0781C135.887 20.6605 135.35 20.0746 134.971 19.3203C134.596 18.5618 134.408 17.6733 134.408 16.6548C134.408 15.6491 134.596 14.7628 134.971 13.9957C135.35 13.2287 135.878 12.63 136.556 12.1996C137.238 11.7692 138.035 11.554 138.947 11.554C139.501 11.554 140.037 11.6456 140.557 11.8288C141.077 12.0121 141.544 12.2997 141.957 12.6918C142.371 13.0838 142.697 13.593 142.935 14.2195C143.174 14.8416 143.293 15.598 143.293 16.4886V17.1662H135.488V15.7344H141.42C141.42 15.2315 141.318 14.7862 141.113 14.3984C140.909 14.0064 140.621 13.6974 140.251 13.4716C139.884 13.2457 139.454 13.1328 138.959 13.1328C138.422 13.1328 137.954 13.2649 137.553 13.5291C137.157 13.7891 136.85 14.13 136.633 14.5518C136.42 14.9695 136.313 15.4233 136.313 15.9134V17.032C136.313 17.6882 136.428 18.2464 136.658 18.7067C136.893 19.1669 137.219 19.5185 137.636 19.7614C138.054 20 138.542 20.1193 139.1 20.1193C139.462 20.1193 139.792 20.0682 140.091 19.9659C140.389 19.8594 140.647 19.7017 140.864 19.4929C141.081 19.2841 141.248 19.0263 141.363 18.7195L143.172 19.0455C143.027 19.5781 142.767 20.0447 142.392 20.4453C142.021 20.8416 141.555 21.1506 140.992 21.3722C140.434 21.5895 139.797 21.6982 139.081 21.6982ZM146.694 11.6818L148.861 15.5043L151.047 11.6818H153.137L150.075 16.5909L153.162 21.5H151.072L148.861 17.831L146.655 21.5H144.559L147.614 16.5909L144.597 11.6818H146.694ZM155.099 25.1818V11.6818H156.966V13.2734H157.126C157.236 13.0689 157.396 12.8324 157.605 12.5639C157.814 12.2955 158.104 12.0611 158.474 11.8608C158.845 11.6562 159.335 11.554 159.944 11.554C160.737 11.554 161.444 11.7543 162.067 12.1548C162.689 12.5554 163.177 13.1328 163.53 13.8871C163.888 14.6413 164.067 15.549 164.067 16.6101C164.067 17.6712 163.89 18.581 163.537 19.3395C163.183 20.0937 162.697 20.6754 162.079 21.0845C161.461 21.4893 160.756 21.6918 159.964 21.6918C159.367 21.6918 158.879 21.5916 158.5 21.3913C158.125 21.1911 157.831 20.9567 157.618 20.6882C157.405 20.4197 157.241 20.1811 157.126 19.9723H157.01V25.1818H155.099ZM156.972 16.5909C156.972 17.2812 157.072 17.8864 157.273 18.4062C157.473 18.9261 157.763 19.3331 158.142 19.6271C158.521 19.9169 158.986 20.0618 159.535 20.0618C160.106 20.0618 160.584 19.9105 160.967 19.608C161.351 19.3011 161.64 18.8857 161.836 18.3615C162.037 17.8374 162.137 17.2472 162.137 16.5909C162.137 15.9432 162.039 15.3615 161.843 14.8459C161.651 14.3303 161.361 13.9233 160.974 13.625C160.59 13.3267 160.111 13.1776 159.535 13.1776C158.981 13.1776 158.513 13.3203 158.129 13.6058C157.75 13.8913 157.462 14.2898 157.266 14.8011C157.07 15.3125 156.972 15.9091 156.972 16.5909ZM170.44 21.6982C169.473 21.6982 168.64 21.4915 167.941 21.0781C167.246 20.6605 166.709 20.0746 166.33 19.3203C165.955 18.5618 165.768 17.6733 165.768 16.6548C165.768 15.6491 165.955 14.7628 166.33 13.9957C166.709 13.2287 167.238 12.63 167.915 12.1996C168.597 11.7692 169.394 11.554 170.306 11.554C170.86 11.554 171.397 11.6456 171.917 11.8288C172.437 12.0121 172.903 12.2997 173.317 12.6918C173.73 13.0838 174.056 13.593 174.295 14.2195C174.533 14.8416 174.653 15.598 174.653 16.4886V17.1662H166.848V15.7344H172.78C172.78 15.2315 172.677 14.7862 172.473 14.3984C172.268 14.0064 171.981 13.6974 171.61 13.4716C171.243 13.2457 170.813 13.1328 170.319 13.1328C169.782 13.1328 169.313 13.2649 168.912 13.5291C168.516 13.7891 168.209 14.13 167.992 14.5518C167.779 14.9695 167.672 15.4233 167.672 15.9134V17.032C167.672 17.6882 167.787 18.2464 168.018 18.7067C168.252 19.1669 168.578 19.5185 168.996 19.7614C169.413 20 169.901 20.1193 170.459 20.1193C170.822 20.1193 171.152 20.0682 171.45 19.9659C171.748 19.8594 172.006 19.7017 172.224 19.4929C172.441 19.2841 172.607 19.0263 172.722 18.7195L174.531 19.0455C174.386 19.5781 174.126 20.0447 173.751 20.4453C173.381 20.8416 172.914 21.1506 172.351 21.3722C171.793 21.5895 171.156 21.6982 170.44 21.6982ZM176.773 21.5V11.6818H178.62V13.2415H178.723C178.902 12.7131 179.217 12.2976 179.669 11.995C180.125 11.6882 180.64 11.5348 181.216 11.5348C181.335 11.5348 181.475 11.5391 181.637 11.5476C181.804 11.5561 181.934 11.5668 182.027 11.5795V13.4077C181.951 13.3864 181.814 13.3629 181.618 13.3374C181.422 13.3075 181.226 13.2926 181.03 13.2926C180.578 13.2926 180.176 13.3885 179.822 13.5803C179.473 13.7678 179.196 14.0298 178.991 14.3665C178.787 14.6989 178.684 15.0781 178.684 15.5043V21.5H176.773ZM183.681 21.5V11.6818H185.593V21.5H183.681ZM184.646 10.1669C184.314 10.1669 184.029 10.0561 183.79 9.83452C183.556 9.60866 183.438 9.3402 183.438 9.02912C183.438 8.71378 183.556 8.44531 183.79 8.22372C184.029 7.99787 184.314 7.88494 184.646 7.88494C184.979 7.88494 185.262 7.99787 185.497 8.22372C185.735 8.44531 185.855 8.71378 185.855 9.02912C185.855 9.3402 185.735 9.60866 185.497 9.83452C185.262 10.0561 184.979 10.1669 184.646 10.1669ZM192.395 21.6982C191.428 21.6982 190.595 21.4915 189.896 21.0781C189.201 20.6605 188.664 20.0746 188.285 19.3203C187.91 18.5618 187.723 17.6733 187.723 16.6548C187.723 15.6491 187.91 14.7628 188.285 13.9957C188.664 13.2287 189.193 12.63 189.87 12.1996C190.552 11.7692 191.349 11.554 192.261 11.554C192.815 11.554 193.352 11.6456 193.872 11.8288C194.392 12.0121 194.858 12.2997 195.272 12.6918C195.685 13.0838 196.011 13.593 196.25 14.2195C196.488 14.8416 196.608 15.598 196.608 16.4886V17.1662H188.803V15.7344H194.735C194.735 15.2315 194.632 14.7862 194.428 14.3984C194.223 14.0064 193.936 13.6974 193.565 13.4716C193.199 13.2457 192.768 13.1328 192.274 13.1328C191.737 13.1328 191.268 13.2649 190.868 13.5291C190.471 13.7891 190.164 14.13 189.947 14.5518C189.734 14.9695 189.627 15.4233 189.627 15.9134V17.032C189.627 17.6882 189.743 18.2464 189.973 18.7067C190.207 19.1669 190.533 19.5185 190.951 19.7614C191.368 20 191.856 20.1193 192.414 20.1193C192.777 20.1193 193.107 20.0682 193.405 19.9659C193.703 19.8594 193.961 19.7017 194.179 19.4929C194.396 19.2841 194.562 19.0263 194.677 18.7195L196.486 19.0455C196.341 19.5781 196.081 20.0447 195.706 20.4453C195.336 20.8416 194.869 21.1506 194.306 21.3722C193.748 21.5895 193.111 21.6982 192.395 21.6982ZM200.639 15.6705V21.5H198.728V11.6818H200.563V13.2798H200.684C200.91 12.7599 201.264 12.3423 201.745 12.027C202.231 11.7116 202.843 11.554 203.58 11.554C204.249 11.554 204.835 11.6946 205.338 11.9759C205.84 12.2528 206.23 12.6662 206.507 13.2159C206.784 13.7656 206.923 14.4453 206.923 15.255V21.5H205.012V15.4851C205.012 14.7734 204.826 14.2173 204.455 13.8168C204.085 13.4119 203.575 13.2095 202.928 13.2095C202.485 13.2095 202.09 13.3054 201.745 13.4972C201.404 13.6889 201.134 13.9702 200.933 14.3409C200.737 14.7074 200.639 15.1506 200.639 15.6705ZM213.622 21.6982C212.671 21.6982 211.853 21.483 211.167 21.0526C210.485 20.6179 209.961 20.0192 209.595 19.2564C209.228 18.4936 209.045 17.62 209.045 16.6357C209.045 15.6385 209.232 14.7585 209.607 13.9957C209.982 13.2287 210.511 12.63 211.193 12.1996C211.874 11.7692 212.678 11.554 213.602 11.554C214.348 11.554 215.013 11.6925 215.597 11.9695C216.181 12.2422 216.651 12.6257 217.009 13.12C217.372 13.6143 217.587 14.1918 217.655 14.8523H215.795C215.693 14.392 215.458 13.9957 215.092 13.6634C214.73 13.331 214.244 13.1648 213.634 13.1648C213.102 13.1648 212.635 13.3054 212.235 13.5866C211.838 13.8636 211.529 14.2599 211.308 14.7756C211.086 15.2869 210.975 15.892 210.975 16.5909C210.975 17.3068 211.084 17.9247 211.301 18.4446C211.519 18.9645 211.825 19.3672 212.222 19.6527C212.622 19.9382 213.093 20.081 213.634 20.081C213.997 20.081 214.325 20.0149 214.619 19.8828C214.917 19.7464 215.166 19.5526 215.367 19.3011C215.571 19.0497 215.714 18.7472 215.795 18.3935H217.655C217.587 19.0284 217.38 19.5952 217.035 20.0938C216.69 20.5923 216.227 20.9844 215.648 21.2699C215.073 21.5554 214.397 21.6982 213.622 21.6982ZM223.93 21.6982C222.963 21.6982 222.13 21.4915 221.431 21.0781C220.737 20.6605 220.2 20.0746 219.82 19.3203C219.445 18.5618 219.258 17.6733 219.258 16.6548C219.258 15.6491 219.445 14.7628 219.82 13.9957C220.2 13.2287 220.728 12.63 221.406 12.1996C222.087 11.7692 222.884 11.554 223.796 11.554C224.35 11.554 224.887 11.6456 225.407 11.8288C225.927 12.0121 226.393 12.2997 226.807 12.6918C227.22 13.0838 227.546 13.593 227.785 14.2195C228.023 14.8416 228.143 15.598 228.143 16.4886V17.1662H220.338V15.7344H226.27C226.27 15.2315 226.168 14.7862 225.963 14.3984C225.759 14.0064 225.471 13.6974 225.1 13.4716C224.734 13.2457 224.303 13.1328 223.809 13.1328C223.272 13.1328 222.803 13.2649 222.403 13.5291C222.006 13.7891 221.7 14.13 221.482 14.5518C221.269 14.9695 221.163 15.4233 221.163 15.9134V17.032C221.163 17.6882 221.278 18.2464 221.508 18.7067C221.742 19.1669 222.068 19.5185 222.486 19.7614C222.903 20 223.391 20.1193 223.95 20.1193C224.312 20.1193 224.642 20.0682 224.94 19.9659C225.239 19.8594 225.496 19.7017 225.714 19.4929C225.931 19.2841 226.097 19.0263 226.212 18.7195L228.021 19.0455C227.876 19.5781 227.616 20.0447 227.241 20.4453C226.871 20.8416 226.404 21.1506 225.842 21.3722C225.283 21.5895 224.646 21.6982 223.93 21.6982ZM237.884 21.7173C237.262 21.7173 236.7 21.6023 236.197 21.3722C235.694 21.1378 235.295 20.799 235.001 20.3558C234.712 19.9126 234.567 19.3693 234.567 18.7259C234.567 18.1719 234.673 17.7159 234.886 17.358C235.099 17 235.387 16.7166 235.749 16.5078C236.112 16.299 236.516 16.1413 236.964 16.0348C237.411 15.9283 237.867 15.8473 238.332 15.7919C238.92 15.7237 239.397 15.6683 239.763 15.6257C240.13 15.5788 240.396 15.5043 240.562 15.402C240.729 15.2997 240.812 15.1335 240.812 14.9034V14.8587C240.812 14.3004 240.654 13.8679 240.339 13.5611C240.028 13.2543 239.563 13.1009 238.945 13.1009C238.302 13.1009 237.795 13.2436 237.424 13.5291C237.058 13.8104 236.804 14.1236 236.663 14.4688L234.867 14.0597C235.08 13.4631 235.391 12.9815 235.8 12.6151C236.214 12.2443 236.689 11.9759 237.226 11.8097C237.763 11.6392 238.327 11.554 238.92 11.554C239.312 11.554 239.727 11.6009 240.166 11.6946C240.609 11.7841 241.023 11.9503 241.406 12.1932C241.794 12.4361 242.112 12.7834 242.359 13.2351C242.606 13.6825 242.729 14.2642 242.729 14.9801V21.5H240.863V20.1577H240.786C240.663 20.4048 240.477 20.6477 240.23 20.8864C239.983 21.125 239.665 21.3232 239.278 21.4808C238.89 21.6385 238.425 21.7173 237.884 21.7173ZM238.3 20.1832C238.828 20.1832 239.28 20.0788 239.655 19.87C240.034 19.6612 240.322 19.3885 240.518 19.0518C240.718 18.7109 240.818 18.3466 240.818 17.9588V16.6932C240.75 16.7614 240.618 16.8253 240.422 16.8849C240.23 16.9403 240.011 16.9893 239.763 17.032C239.516 17.0703 239.276 17.1065 239.041 17.1406C238.807 17.1705 238.611 17.196 238.453 17.2173C238.082 17.2642 237.744 17.343 237.437 17.4538C237.134 17.5646 236.891 17.7244 236.708 17.9332C236.529 18.1378 236.44 18.4105 236.44 18.7514C236.44 19.2244 236.614 19.5824 236.964 19.8253C237.313 20.0639 237.759 20.1832 238.3 20.1832ZM249.858 11.6818V13.2159H244.495V11.6818H249.858ZM245.933 9.32955H247.845V18.6172C247.845 18.9879 247.9 19.267 248.011 19.4545C248.122 19.6378 248.264 19.7635 248.439 19.8317C248.618 19.8956 248.812 19.9276 249.021 19.9276C249.174 19.9276 249.308 19.9169 249.423 19.8956C249.539 19.8743 249.628 19.8572 249.692 19.8445L250.037 21.4233C249.926 21.4659 249.769 21.5085 249.564 21.5511C249.36 21.598 249.104 21.6236 248.797 21.6278C248.294 21.6364 247.825 21.5469 247.391 21.3594C246.956 21.1719 246.605 20.8821 246.336 20.4901C246.068 20.098 245.933 19.6058 245.933 19.0135V9.32955ZM256.09 10.6911V8.40909H266.842V10.6911H262.834V21.5H260.098V10.6911H256.09ZM271.284 15.8239V21.5H268.561V8.40909H271.208V13.4141H271.323C271.544 12.8345 271.902 12.3807 272.396 12.0526C272.891 11.7202 273.511 11.554 274.257 11.554C274.938 11.554 275.533 11.7031 276.04 12.0014C276.551 12.2955 276.948 12.7195 277.229 13.2734C277.514 13.8232 277.655 14.4815 277.651 15.2486V21.5H274.928V15.7344C274.932 15.1293 274.779 14.6584 274.468 14.3217C274.161 13.9851 273.73 13.8168 273.176 13.8168C272.806 13.8168 272.477 13.8956 272.192 14.0533C271.911 14.2109 271.689 14.4411 271.527 14.7436C271.369 15.0419 271.289 15.402 271.284 15.8239ZM284.268 21.6918C283.258 21.6918 282.389 21.4872 281.66 21.0781C280.936 20.6648 280.377 20.081 279.985 19.3267C279.593 18.5682 279.397 17.6712 279.397 16.6357C279.397 15.6257 279.593 14.7393 279.985 13.9766C280.377 13.2138 280.929 12.6193 281.641 12.1932C282.357 11.767 283.196 11.554 284.159 11.554C284.807 11.554 285.41 11.6584 285.968 11.8672C286.531 12.0717 287.021 12.3807 287.439 12.794C287.86 13.2074 288.189 13.7273 288.423 14.3537C288.657 14.9759 288.775 15.7045 288.775 16.5398V17.2876H280.484V15.6001H286.211C286.211 15.2081 286.126 14.8608 285.956 14.5582C285.785 14.2557 285.549 14.0192 285.246 13.8487C284.948 13.674 284.6 13.5866 284.204 13.5866C283.791 13.5866 283.424 13.6825 283.105 13.8743C282.789 14.0618 282.542 14.3153 282.363 14.6349C282.184 14.9503 282.093 15.3018 282.088 15.6896V17.294C282.088 17.7798 282.178 18.1996 282.357 18.5533C282.54 18.907 282.798 19.1797 283.13 19.3714C283.463 19.5632 283.857 19.6591 284.313 19.6591C284.615 19.6591 284.892 19.6165 285.144 19.5312C285.395 19.446 285.61 19.3182 285.789 19.1477C285.968 18.9773 286.105 18.7685 286.199 18.5213L288.717 18.6875C288.589 19.2926 288.327 19.821 287.931 20.2727C287.539 20.7202 287.032 21.0696 286.409 21.321C285.792 21.5682 285.078 21.6918 284.268 21.6918ZM306.319 12.9922H303.519C303.468 12.63 303.364 12.3082 303.206 12.027C303.048 11.7415 302.846 11.4986 302.599 11.2983C302.352 11.098 302.066 10.9446 301.742 10.8381C301.423 10.7315 301.075 10.6783 300.7 10.6783C300.023 10.6783 299.433 10.8466 298.93 11.1832C298.427 11.5156 298.037 12.0014 297.76 12.6406C297.483 13.2756 297.345 14.0469 297.345 14.9545C297.345 15.8878 297.483 16.6719 297.76 17.3068C298.041 17.9418 298.433 18.4212 298.936 18.745C299.439 19.0689 300.021 19.2308 300.681 19.2308C301.052 19.2308 301.395 19.1818 301.71 19.0838C302.03 18.9858 302.313 18.843 302.561 18.6555C302.808 18.4638 303.012 18.2315 303.174 17.9588C303.34 17.6861 303.455 17.375 303.519 17.0256L306.319 17.0384C306.247 17.6392 306.066 18.2188 305.776 18.777C305.49 19.331 305.105 19.8274 304.619 20.2663C304.137 20.701 303.562 21.0462 302.893 21.3018C302.228 21.5533 301.476 21.679 300.637 21.679C299.469 21.679 298.425 21.4148 297.504 20.8864C296.588 20.358 295.864 19.593 295.331 18.5916C294.803 17.5902 294.539 16.3778 294.539 14.9545C294.539 13.527 294.807 12.3125 295.344 11.3111C295.881 10.3097 296.61 9.54687 297.53 9.02273C298.45 8.49432 299.486 8.23011 300.637 8.23011C301.395 8.23011 302.098 8.33665 302.746 8.54972C303.398 8.76278 303.975 9.07386 304.478 9.48295C304.981 9.88778 305.39 10.3842 305.705 10.9723C306.025 11.5604 306.23 12.2337 306.319 12.9922ZM311.052 21.6854C310.426 21.6854 309.868 21.5767 309.378 21.3594C308.888 21.1378 308.5 20.8118 308.214 20.3814C307.933 19.9467 307.792 19.4055 307.792 18.7578C307.792 18.2124 307.893 17.7543 308.093 17.3835C308.293 17.0128 308.566 16.7145 308.911 16.4886C309.256 16.2628 309.648 16.0923 310.087 15.9773C310.53 15.8622 310.995 15.7812 311.481 15.7344C312.052 15.6747 312.512 15.6193 312.861 15.5682C313.211 15.5128 313.464 15.4318 313.622 15.3253C313.78 15.2187 313.858 15.0611 313.858 14.8523V14.8139C313.858 14.4091 313.731 14.0959 313.475 13.8743C313.224 13.6527 312.866 13.5419 312.401 13.5419C311.911 13.5419 311.521 13.6506 311.231 13.8679C310.942 14.081 310.75 14.3494 310.656 14.6733L308.138 14.4688C308.265 13.8722 308.517 13.3565 308.892 12.9219C309.267 12.483 309.751 12.1463 310.343 11.9119C310.939 11.6733 311.63 11.554 312.414 11.554C312.959 11.554 313.481 11.6179 313.98 11.7457C314.483 11.8736 314.928 12.0717 315.316 12.3402C315.708 12.6087 316.017 12.9538 316.243 13.3757C316.469 13.7933 316.581 14.294 316.581 14.8778V21.5H313.999V20.1385H313.922C313.765 20.4453 313.554 20.7159 313.29 20.9503C313.025 21.1804 312.708 21.3615 312.337 21.4936C311.966 21.6214 311.538 21.6854 311.052 21.6854ZM311.832 19.8061C312.233 19.8061 312.586 19.7273 312.893 19.5696C313.2 19.4077 313.441 19.1903 313.616 18.9176C313.79 18.6449 313.878 18.3359 313.878 17.9908V16.9489C313.792 17.0043 313.675 17.0554 313.526 17.1023C313.381 17.1449 313.217 17.1854 313.034 17.2237C312.851 17.2578 312.667 17.2898 312.484 17.3196C312.301 17.3452 312.135 17.3686 311.986 17.3899C311.666 17.4368 311.387 17.5114 311.148 17.6136C310.91 17.7159 310.724 17.8544 310.592 18.0291C310.46 18.1996 310.394 18.4126 310.394 18.6683C310.394 19.0391 310.528 19.3224 310.797 19.5185C311.069 19.7102 311.415 19.8061 311.832 19.8061ZM318.694 25.1818V11.6818H321.379V13.331H321.5C321.619 13.0668 321.792 12.7983 322.018 12.5256C322.248 12.2486 322.546 12.0185 322.913 11.8352C323.284 11.6477 323.744 11.554 324.294 11.554C325.009 11.554 325.67 11.7415 326.275 12.1165C326.88 12.4872 327.364 13.0476 327.726 13.7976C328.088 14.5433 328.269 15.4787 328.269 16.6037C328.269 17.6989 328.093 18.6236 327.739 19.3778C327.389 20.1278 326.912 20.6967 326.307 21.0845C325.706 21.468 325.033 21.6598 324.287 21.6598C323.759 21.6598 323.309 21.5724 322.938 21.3977C322.572 21.223 322.271 21.0036 322.037 20.7393C321.803 20.4709 321.624 20.2003 321.5 19.9276H321.417V25.1818H318.694ZM321.36 16.5909C321.36 17.1747 321.441 17.6839 321.602 18.1186C321.764 18.5533 321.999 18.892 322.306 19.1349C322.612 19.3736 322.985 19.4929 323.424 19.4929C323.867 19.4929 324.242 19.3714 324.549 19.1286C324.856 18.8814 325.088 18.5405 325.246 18.1058C325.408 17.6669 325.489 17.1619 325.489 16.5909C325.489 16.0241 325.41 15.5256 325.252 15.0952C325.095 14.6648 324.862 14.3281 324.556 14.0852C324.249 13.8423 323.872 13.7209 323.424 13.7209C322.981 13.7209 322.606 13.8381 322.299 14.0724C321.997 14.3068 321.764 14.6392 321.602 15.0696C321.441 15.5 321.36 16.0071 321.36 16.5909ZM330.085 21.5V11.6818H332.808V21.5H330.085ZM331.453 10.4162C331.048 10.4162 330.7 10.282 330.411 10.0135C330.125 9.74077 329.982 9.41477 329.982 9.03551C329.982 8.66051 330.125 8.33878 330.411 8.07031C330.7 7.79758 331.048 7.66122 331.453 7.66122C331.857 7.66122 332.203 7.79758 332.488 8.07031C332.778 8.33878 332.923 8.66051 332.923 9.03551C332.923 9.41477 332.778 9.74077 332.488 10.0135C332.203 10.282 331.857 10.4162 331.453 10.4162ZM340.211 11.6818V13.7273H334.299V11.6818H340.211ZM335.641 9.32955H338.364V18.483C338.364 18.7344 338.402 18.9304 338.479 19.071C338.556 19.2074 338.662 19.3033 338.799 19.3587C338.939 19.4141 339.101 19.4418 339.284 19.4418C339.412 19.4418 339.54 19.4311 339.668 19.4098C339.796 19.3842 339.894 19.3651 339.962 19.3523L340.39 21.3786C340.254 21.4212 340.062 21.4702 339.815 21.5256C339.568 21.5852 339.267 21.6214 338.914 21.6342C338.257 21.6598 337.682 21.5724 337.188 21.3722C336.698 21.1719 336.316 20.8608 336.044 20.4389C335.771 20.017 335.637 19.4844 335.641 18.8409V9.32955ZM344.785 21.6854C344.158 21.6854 343.6 21.5767 343.11 21.3594C342.62 21.1378 342.232 20.8118 341.947 20.3814C341.665 19.9467 341.525 19.4055 341.525 18.7578C341.525 18.2124 341.625 17.7543 341.825 17.3835C342.026 17.0128 342.298 16.7145 342.643 16.4886C342.989 16.2628 343.381 16.0923 343.82 15.9773C344.263 15.8622 344.727 15.7812 345.213 15.7344C345.784 15.6747 346.244 15.6193 346.594 15.5682C346.943 15.5128 347.197 15.4318 347.354 15.3253C347.512 15.2187 347.591 15.0611 347.591 14.8523V14.8139C347.591 14.4091 347.463 14.0959 347.207 13.8743C346.956 13.6527 346.598 13.5419 346.134 13.5419C345.643 13.5419 345.254 13.6506 344.964 13.8679C344.674 14.081 344.482 14.3494 344.388 14.6733L341.87 14.4688C341.998 13.8722 342.249 13.3565 342.624 12.9219C342.999 12.483 343.483 12.1463 344.075 11.9119C344.672 11.6733 345.362 11.554 346.146 11.554C346.692 11.554 347.214 11.6179 347.712 11.7457C348.215 11.8736 348.661 12.0717 349.048 12.3402C349.44 12.6087 349.749 12.9538 349.975 13.3757C350.201 13.7933 350.314 14.294 350.314 14.8778V21.5H347.732V20.1385H347.655C347.497 20.4453 347.286 20.7159 347.022 20.9503C346.758 21.1804 346.44 21.3615 346.07 21.4936C345.699 21.6214 345.271 21.6854 344.785 21.6854ZM345.565 19.8061C345.965 19.8061 346.319 19.7273 346.626 19.5696C346.933 19.4077 347.173 19.1903 347.348 18.9176C347.523 18.6449 347.61 18.3359 347.61 17.9908V16.9489C347.525 17.0043 347.408 17.0554 347.259 17.1023C347.114 17.1449 346.95 17.1854 346.766 17.2237C346.583 17.2578 346.4 17.2898 346.217 17.3196C346.033 17.3452 345.867 17.3686 345.718 17.3899C345.398 17.4368 345.119 17.5114 344.881 17.6136C344.642 17.7159 344.457 17.8544 344.325 18.0291C344.192 18.1996 344.126 18.4126 344.126 18.6683C344.126 19.0391 344.261 19.3224 344.529 19.5185C344.802 19.7102 345.147 19.8061 345.565 19.8061ZM355.15 8.40909V21.5H352.426V8.40909H355.15ZM370.228 12.6406C370.139 12.3295 370.013 12.0547 369.851 11.8161C369.689 11.5732 369.491 11.3686 369.257 11.2024C369.027 11.032 368.762 10.902 368.464 10.8125C368.17 10.723 367.844 10.6783 367.486 10.6783C366.817 10.6783 366.229 10.8445 365.722 11.1768C365.219 11.5092 364.827 11.9929 364.546 12.6278C364.265 13.2585 364.124 14.0298 364.124 14.9418C364.124 15.8537 364.262 16.6293 364.539 17.2685C364.816 17.9077 365.208 18.3956 365.716 18.7322C366.223 19.0646 366.821 19.2308 367.512 19.2308C368.138 19.2308 368.673 19.12 369.116 18.8984C369.564 18.6726 369.904 18.3551 370.139 17.946C370.377 17.5369 370.497 17.0533 370.497 16.495L371.059 16.5781H367.684V14.4943H373.162V16.1435C373.162 17.294 372.919 18.2827 372.434 19.1094C371.948 19.9318 371.279 20.5668 370.426 21.0142C369.574 21.4574 368.598 21.679 367.499 21.679C366.272 21.679 365.194 21.4084 364.265 20.8672C363.336 20.3217 362.611 19.5483 362.091 18.5469C361.576 17.5412 361.318 16.348 361.318 14.9673C361.318 13.9062 361.471 12.9602 361.778 12.1293C362.089 11.294 362.524 10.5866 363.082 10.0071C363.64 9.42756 364.29 8.98651 365.032 8.68395C365.773 8.38139 366.576 8.23011 367.441 8.23011C368.183 8.23011 368.873 8.33878 369.512 8.55611C370.152 8.76918 370.718 9.07173 371.213 9.46378C371.711 9.85582 372.118 10.3224 372.434 10.8636C372.749 11.4006 372.951 11.9929 373.041 12.6406H370.228ZM375.19 21.5V11.6818H377.83V13.3949H377.932C378.111 12.7855 378.412 12.3253 378.834 12.0142C379.256 11.6989 379.741 11.5412 380.291 11.5412C380.427 11.5412 380.574 11.5497 380.732 11.5668C380.89 11.5838 381.028 11.6072 381.148 11.6371V14.0533C381.02 14.0149 380.843 13.9808 380.617 13.951C380.391 13.9212 380.184 13.9062 379.997 13.9062C379.596 13.9062 379.238 13.9936 378.923 14.1683C378.612 14.3388 378.365 14.5774 378.182 14.8842C378.003 15.1911 377.913 15.5447 377.913 15.9453V21.5H375.19ZM382.555 21.5V11.6818H385.278V21.5H382.555ZM383.923 10.4162C383.518 10.4162 383.171 10.282 382.881 10.0135C382.596 9.74077 382.453 9.41477 382.453 9.03551C382.453 8.66051 382.596 8.33878 382.881 8.07031C383.171 7.79758 383.518 7.66122 383.923 7.66122C384.328 7.66122 384.673 7.79758 384.959 8.07031C385.249 8.33878 385.393 8.66051 385.393 9.03551C385.393 9.41477 385.249 9.74077 384.959 10.0135C384.673 10.282 384.328 10.4162 383.923 10.4162ZM390.183 8.40909V21.5H387.46V8.40909H390.183ZM395.087 8.40909V21.5H392.364V8.40909H395.087ZM401.743 21.6918C400.733 21.6918 399.863 21.4872 399.135 21.0781C398.41 20.6648 397.852 20.081 397.46 19.3267C397.068 18.5682 396.872 17.6712 396.872 16.6357C396.872 15.6257 397.068 14.7393 397.46 13.9766C397.852 13.2138 398.404 12.6193 399.116 12.1932C399.831 11.767 400.671 11.554 401.634 11.554C402.282 11.554 402.885 11.6584 403.443 11.8672C404.006 12.0717 404.496 12.3807 404.913 12.794C405.335 13.2074 405.663 13.7273 405.898 14.3537C406.132 14.9759 406.249 15.7045 406.249 16.5398V17.2876H397.959V15.6001H403.686C403.686 15.2081 403.601 14.8608 403.43 14.5582C403.26 14.2557 403.023 14.0192 402.721 13.8487C402.422 13.674 402.075 13.5866 401.679 13.5866C401.265 13.5866 400.899 13.6825 400.579 13.8743C400.264 14.0618 400.017 14.3153 399.838 14.6349C399.659 14.9503 399.567 15.3018 399.563 15.6896V17.294C399.563 17.7798 399.653 18.1996 399.831 18.5533C400.015 18.907 400.273 19.1797 400.605 19.3714C400.937 19.5632 401.331 19.6591 401.787 19.6591C402.09 19.6591 402.367 19.6165 402.618 19.5312C402.87 19.446 403.085 19.3182 403.264 19.1477C403.443 18.9773 403.579 18.7685 403.673 18.5213L406.192 18.6875C406.064 19.2926 405.802 19.821 405.405 20.2727C405.013 20.7202 404.506 21.0696 403.884 21.321C403.266 21.5682 402.552 21.6918 401.743 21.6918Z" fill="#212121"/>
</g>
<g id="Group 1171275247">
<g id="Asset 32 1" clip-path="url(#clip0_0_1)">
<g id="Layer 2">
<g id="Layer 1">
<path id="Vector" d="M11.8987 22.1825H9.64925L9.08265 19.5419C8.72191 17.82 7.66047 17.0341 6.10042 17.0341H2.70081V19.7317C2.73291 20.8707 2.91234 21.5522 3.37506 22.1255V22.1825H0.640261H0V22.1274C0.525052 21.5465 0.706365 20.8878 0.740361 19.781V11.4776C0.708254 10.3841 0.551494 9.70643 0.115209 9.13122V9.07617H1.90945H6.34218C9.2904 9.07617 11.1904 10.555 11.1904 12.7818C11.1904 14.7276 9.75124 16.0565 7.62836 16.0565H7.23363V16.1704H7.4055C9.64925 16.1704 10.8051 17.3094 11.2603 19.3976L11.8987 22.1825ZM6.27418 15.8552C8.05521 15.8552 9.23752 14.7694 9.23752 13.1406C9.23752 11.4757 8.02121 10.3709 6.17219 10.3709H2.71025V15.8552H6.27418Z" fill="black"/>
<path id="Vector_2" d="M22.7615 17.5389H14.6572C14.6572 19.817 16.0624 21.2464 17.9472 21.2464C19.5054 21.2464 20.7916 20.2536 21.0485 18.8697H21.0636L22.5216 19.7277C21.9154 21.385 20.1381 22.5563 17.8774 22.5563C14.931 22.5563 12.7383 20.5915 12.7383 17.4649C12.7383 14.3762 14.914 12.3545 17.8377 12.3545C20.6821 12.3545 22.7898 14.2263 22.7898 17.015C22.7951 17.1901 22.7856 17.3654 22.7615 17.5389ZM20.9276 16.548C20.9276 14.7502 19.6055 13.4593 17.8264 13.4593C16.0472 13.4593 14.8045 14.7312 14.6742 16.5859L20.9276 16.548Z" fill="black"/>
<path id="Vector_3" d="M33.4089 21.9848L33.1577 22.0171H33.1293L31.2029 22.2069H31.1443L31.1103 19.9289V19.9118H30.9744C30.5626 21.3906 29.0725 22.3797 26.9817 22.3797C24.9438 22.3797 23.6406 21.4438 23.6406 19.7409C23.6406 18.0381 24.9438 16.9883 27.2291 16.7263L29.5257 16.4454C30.1245 16.3713 30.895 16.1853 30.895 15.3234C30.895 14.3743 29.9715 13.5636 28.5833 13.5636C27.0572 13.5636 26.0128 14.5565 25.8938 15.9043L24.0429 15.8664C24.2488 13.8826 25.9448 12.3848 28.6343 12.3848C30.9819 12.3848 32.8139 13.5238 32.8139 15.8853V19.3859L32.8895 19.9668L33.0217 20.9483C33.0653 21.2951 33.2025 21.6233 33.4183 21.8975L33.4089 21.9848ZM30.9196 16.7054H30.7855C30.5966 17.0035 30.1169 17.275 29.4842 17.3794L27.5464 17.6774C26.2791 17.8843 25.5595 18.5393 25.5595 19.5321C25.5595 20.599 26.366 21.2406 27.7523 21.2406C29.6409 21.2406 30.9215 20.0807 30.9215 18.245L30.9196 16.7054Z" fill="black"/>
<path id="Vector_4" d="M45.2986 20.6239C45.3213 21.2674 45.4063 21.6528 45.716 22.0476V22.1236L43.4496 22.3476H43.391L43.4156 20.7017V20.0297H43.2853C42.8584 21.4705 41.3324 22.5184 39.5514 22.5184C36.775 22.5184 34.7031 20.4416 34.7031 17.484C34.7031 14.5814 36.707 12.4115 39.5854 12.4115C41.3154 12.4115 42.8584 13.4215 43.2853 14.9003H43.4061V10.7049C43.3703 9.92848 43.2381 9.54691 42.9226 9.15395V9.07802L45.2967 8.87109V15.5154V20.6258L45.2986 20.6239ZM43.4231 16.8271C43.1776 14.961 41.8423 13.6227 40.0046 13.6227C38.1027 13.6284 36.6428 15.187 36.6428 17.427C36.6428 19.6367 38.065 21.2826 40.1029 21.2826C41.8178 21.2826 43.172 20.0031 43.4194 18.1047L43.4231 16.8271Z" fill="black"/>
<path id="Vector_5" d="M57.3095 12.7285H57.555V12.7855C57.0319 13.355 56.7996 13.9985 56.3765 14.9572L52.958 23.0993C52.1364 25.1021 50.9201 26.0076 49.2581 26.0076C48.5749 26.0047 47.8972 25.8847 47.2542 25.6526L47.4072 24.1339C47.9444 24.3842 48.5281 24.5181 49.1202 24.5268C50.1495 24.5268 50.9541 24.0029 51.4168 22.917L51.7587 22.0761H51.3488L47.7358 14.7484C47.4048 14.0371 46.9756 13.3763 46.4609 12.7855V12.7285H49.1655V12.7855C48.9767 13.1822 49.1259 13.6113 49.3695 14.1238L52.3914 20.5346L54.7711 14.6705C55.0752 13.8922 55.2508 13.317 55.0053 12.7855V12.7285H57.3095Z" fill="black"/>
<path id="Vector_6" d="M67.4254 20.8349C67.8187 20.8278 68.2096 20.771 68.5888 20.6659L68.5718 22.1068C68.002 22.2594 67.4145 22.3348 66.8248 22.3308C64.9361 22.3308 63.7066 21.1519 63.7066 18.6632V14.0217H61.9766V12.7289H62.953C63.6216 12.7289 63.9974 12.2979 63.9974 11.531V10.2021H65.8861V10.7451C65.8861 11.793 65.5953 12.4859 65.0136 12.6434V12.7365H68.5416V14.0293H65.5783V18.4392C65.5783 19.973 66.2469 20.8349 67.4292 20.8349H67.4254Z" fill="black"/>
<path id="Vector_7" d="M75.0578 12.3545C78.1231 12.3545 80.4027 14.4427 80.4027 17.4459C80.4027 20.3656 78.193 22.5563 75.0408 22.5563C71.9906 22.5563 69.7109 20.4776 69.7109 17.4839C69.7109 14.5642 71.9226 12.3583 75.0578 12.3583V12.3545ZM78.4574 17.4801C78.4574 15.2343 76.9842 13.6055 74.9955 13.6055C73.0426 13.6055 71.6374 15.2153 71.6374 17.4231C71.6374 19.6689 73.0936 21.2787 75.0823 21.2787C77.0711 21.2787 78.4668 19.6727 78.4668 17.4839L78.4574 17.4801Z" fill="black"/>
<path id="Vector_8" d="M91.8176 9.08008C96.1351 9.08008 99.1004 11.5802 99.1004 15.6123C99.1004 19.5799 96.171 22.1826 91.7836 22.1826H85.8438V22.1256C86.3046 21.5144 86.4557 20.7968 86.4727 19.5647V11.6979C86.4557 10.4754 86.3046 9.7483 85.8438 9.13513V9.08008H91.8176ZM97.0946 15.6484C97.0946 12.4668 94.9358 10.4089 91.6986 10.4089H88.4426V20.8499H91.7326C94.9018 20.8537 97.0946 18.851 97.0946 15.6484Z" fill="black"/>
<path id="Vector_9" d="M103.591 22.1256V22.1825H100.718V22.1256C101.082 21.6415 101.173 21.1232 101.184 20.2006V14.9972C101.184 13.9341 101.058 13.4937 100.691 13.0362V12.9622L102.939 12.7723L103.069 12.7344V20.2367C103.079 21.1346 103.158 21.6415 103.591 22.1256Z" fill="black"/>
<path id="Vector_10" d="M114.69 20.3373C114.711 21.1612 114.811 21.649 115.155 22.1046V22.1616H114.69V22.1787H112.802H112.277V22.1217C112.751 21.5978 112.8 21.0359 112.8 19.969V17.1461C112.8 15.1244 111.804 13.9189 110.178 13.9189C108.499 13.9189 107.487 15.1718 107.487 17.2676V20.1816C107.496 21.1213 107.57 21.6452 108.012 22.135V22.192H105.141V22.135C105.473 21.6927 105.579 21.2219 105.604 20.4436V14.5985C105.583 13.6493 105.443 13.2374 105.098 12.8046V12.7305L107.44 12.5293H107.479V15.0693H107.598C107.991 13.5145 109.243 12.5426 110.922 12.5426C113.251 12.5426 114.7 14.2075 114.7 16.9221L114.69 20.3373Z" fill="black"/>
<path id="Vector_11" d="M126.326 17.5389H118.231C118.231 19.817 119.637 21.2464 121.521 21.2464C123.08 21.2464 124.366 20.2536 124.623 18.8697H124.638L126.096 19.7277C125.49 21.385 123.712 22.5563 121.453 22.5563C118.505 22.5563 116.312 20.5915 116.312 17.4649C116.312 14.3762 118.488 12.3545 121.412 12.3545C124.256 12.3545 126.364 14.2263 126.364 17.015C126.366 17.1904 126.354 17.3657 126.326 17.5389ZM124.492 16.548C124.492 14.7502 123.17 13.4593 121.391 13.4593C119.612 13.4593 118.369 14.7312 118.239 16.5859L124.492 16.548Z" fill="black"/>
<path id="Vector_12" d="M102.138 9.80474C102.751 9.80474 103.248 9.30499 103.248 8.6885C103.248 8.07202 102.751 7.57227 102.138 7.57227C101.525 7.57227 101.027 8.07202 101.027 8.6885C101.027 9.30499 101.525 9.80474 102.138 9.80474Z" fill="#0E70F8"/>
<path id="Vector_13" d="M107.05 7.17202C105.598 7.17202 104.217 6.58922 103.052 5.48627C102.532 4.99504 102.086 4.42961 101.73 3.80812C101.694 3.73984 101.676 3.66397 101.676 3.58696C101.676 3.50995 101.694 3.43408 101.73 3.3658C102.086 2.74431 102.532 2.17888 103.052 1.68765C104.213 0.582798 105.598 0 107.05 0C107.174 0 107.292 0.0494014 107.38 0.137336C107.467 0.225272 107.517 0.344537 107.517 0.468896V6.70502C107.517 6.76651 107.505 6.82739 107.481 6.88418C107.458 6.94096 107.423 6.99252 107.38 7.03591C107.337 7.0793 107.285 7.11366 107.228 7.13702C107.172 7.16038 107.111 7.17227 107.05 7.17202ZM102.682 3.58601C102.975 4.03877 103.321 4.45435 103.713 4.82374C104.489 5.59579 105.499 6.08436 106.584 6.21145V0.960572C105.499 1.08766 104.489 1.57623 103.713 2.34828C103.322 2.71845 102.975 3.13393 102.682 3.58601Z" fill="#0E70F8"/>
<path id="Vector_14" d="M97.2224 7.17202C97.0992 7.17202 96.981 7.12282 96.8939 7.03524C96.8068 6.94766 96.7578 6.82888 96.7578 6.70502V0.468896C96.7578 0.344865 96.8067 0.225887 96.8938 0.138006C96.9809 0.0501251 97.099 0.000502149 97.2224 0C98.6767 0 100.055 0.582798 101.223 1.68765C101.743 2.17846 102.189 2.74396 102.545 3.3658C102.581 3.43384 102.6 3.5098 102.6 3.58696C102.6 3.66412 102.581 3.74008 102.545 3.80812C102.189 4.42996 101.743 4.99546 101.223 5.48627C100.059 6.58922 98.6767 7.17202 97.2224 7.17202ZM97.6889 0.960572V6.21145C98.7738 6.08434 99.7851 5.59581 100.562 4.82374C100.953 4.45383 101.299 4.03832 101.593 3.58601C101.299 3.13393 100.953 2.71845 100.562 2.34828C99.7851 1.57621 98.7738 1.08768 97.6889 0.960572Z" fill="#0E70F8"/>
</g>
</g>
</g>
</g>
</g>
</g>
</g>
<defs>
<clipPath id="clip0_0_1">
<rect width="126.36" height="26" fill="white"/>
</clipPath>
</defs>
</svg>
