<svg width="232" height="233" viewBox="0 0 232 233" fill="none" xmlns="http://www.w3.org/2000/svg">
<g id="Group">
<g id="Layer 2">
<g id="Illustration">
<path id="Vector" d="M109.484 3.36434C81.2495 -10.047 13.7398 31.7082 2.26661 89.4714C-10.5804 154.154 48.0857 232.622 119.13 232.543C165.214 232.492 209.128 199.401 224.691 154.497C243.731 99.5531 218.212 33.0542 190.276 26.9335C174.047 23.377 162.752 41.4647 142.846 35.2171C124.152 29.3502 123.815 10.1719 109.484 3.36434Z" fill="#F4F7FA"/>
<g id="Clip path group">
<mask id="mask0_4470_24448" style="mask-type:luminance" maskUnits="userSpaceOnUse" x="98" y="11" width="36" height="71">
<g id="clip-path">
<path id="Vector_2" d="M104.65 81.3483H116.236C116.236 81.3483 118.417 75.3997 115.579 71.2C109.785 62.634 117.685 58.152 120.713 55.7797C125.279 52.2018 127.745 47.0551 121.03 44.8144C114.314 42.5738 121.063 32.1574 129.269 27.4445C137.301 22.8316 133.744 5.87812 115.445 14.2648C104.518 19.2751 106.23 30.8733 105.707 36.9361C105.183 42.9989 96.173 43.5002 99.255 50.9066C101.889 57.2327 106.891 61.8456 103.073 66.1953C99.255 70.5449 98.858 75.4211 104.65 81.3483Z" fill="white"/>
</g>
</mask>
<g mask="url(#mask0_4470_24448)">
<g id="Group_2">
<path id="Vector_3" d="M104.65 81.3479H116.236C116.236 81.3479 118.417 75.3993 115.579 71.1996C109.785 62.6337 117.685 58.1516 120.713 55.7793C125.279 52.2014 127.289 47.579 121.8 44.5801C115.587 41.1878 121.064 32.157 129.27 27.4426C137.302 22.8297 133.744 5.87616 115.446 14.2629C104.518 19.2748 106.23 30.8729 105.707 36.9357C105.183 42.9986 96.173 43.4998 99.255 50.9062C101.889 57.2323 106.891 61.8453 103.073 66.1949C99.255 70.5445 98.858 75.4208 104.65 81.3479Z" fill="#0E70F8"/>
<path id="Vector_4" d="M109.636 82.4329C109.609 82.2838 106.921 67.3037 108.73 51.6462C109.793 42.4457 112.179 34.8045 115.822 28.9479C120.384 21.6137 126.94 17.0674 135.298 15.4375L135.356 15.7341C127.081 17.349 120.596 21.8485 116.081 29.1066C112.462 34.9243 110.089 42.5179 109.029 51.6771C107.225 67.2894 109.901 82.2307 109.933 82.3798L109.636 82.4329Z" fill="#BEB8F2"/>
<path id="Vector_5" d="M114.045 32.11C113.033 23.9699 116.125 12.4304 116.156 12.3154L116.448 12.3947C116.416 12.5098 113.341 23.9929 114.345 32.0735L114.045 32.11Z" fill="#BEB8F2"/>
<path id="Vector_6" d="M117.26 27.3347L117.102 27.0786C125.448 21.8724 133.257 24.3819 133.336 24.4049L133.24 24.6928C133.162 24.665 125.482 22.2055 117.26 27.3347Z" fill="#BEB8F2"/>
<path id="Vector_7" d="M108.407 61.9542L108.112 61.8844C110.877 50.2148 126.791 47.2842 126.945 47.2842L126.955 47.5864C126.799 47.6022 111.114 50.5234 108.407 61.9542Z" fill="#BEB8F2"/>
<path id="Vector_8" d="M108.275 57.0615C106.759 49.7646 98.8251 44.7249 98.7451 44.6749L98.9036 44.418C98.9828 44.4687 107.027 49.5734 108.57 56.9996L108.275 57.0615Z" fill="#BEB8F2"/>
<path id="Vector_9" d="M109.565 80.0245L109.263 80.0007C109.454 77.5673 111.343 75.4362 112.895 74.0767C113.927 73.177 115.044 72.38 116.23 71.6973L116.375 71.963C116.31 71.9963 109.916 75.5472 109.565 80.0245Z" fill="#BEB8F2"/>
<path id="Vector_10" d="M108.825 76.497C108.244 73.0936 103.007 69.2302 101.286 67.9604C100.925 67.6939 100.799 67.5995 100.752 67.5472L100.979 67.3457L100.865 67.4464L100.978 67.3457C101.012 67.3814 101.223 67.5368 101.466 67.7161C103.209 69.0042 108.517 72.9223 109.123 76.4463L108.825 76.497Z" fill="#BEB8F2"/>
</g>
</g>
</g>
<path id="Vector_11" d="M95.0104 106.404C91.9894 111.172 93.5574 116.55 95.2544 120.254C95.7671 120.325 96.0467 120.507 96.5467 120.701C101.07 122.458 105.927 123.342 110.633 124.316C111.645 124.525 112.64 124.574 113.667 124.707L114.715 124.814C114.715 124.814 121.485 110.449 115.624 106.201C109.764 101.953 113.802 89.976 115.22 83.3398C119.06 65.3354 99.1993 64.3836 102.286 40.8541C103.107 34.5946 106.763 22.933 102.151 17.2509C96.8969 10.7764 91.7771 15.7669 88.5429 10.5092C83.4873 2.28503 74.0463 -1.67436 67.2009 5.19191C60.4443 11.9677 65.4579 27.902 81.2697 42.2683C91.4451 53.8609 91.2264 56.8987 89.3511 64.1195C88.0374 69.1773 81.3679 81.9232 87.6334 88.1954C93.8988 94.4676 98.4609 100.952 95.0104 106.404Z" fill="url(#paint0_linear_4470_24448)"/>
<g id="Clip path group_2">
<mask id="mask1_4470_24448" style="mask-type:luminance" maskUnits="userSpaceOnUse" x="64" y="1" width="55" height="124">
<g id="clip-path-2">
<path id="Vector_12" d="M97.7359 124.812H114.712C114.712 124.812 121.483 110.448 115.622 106.2C109.761 101.951 113.8 89.9741 115.218 83.3379C119.057 65.3335 99.1969 64.3817 102.284 40.8522C103.104 34.5927 106.761 22.9311 102.149 17.249C96.8945 10.7746 91.7747 15.7651 88.5406 10.5073C83.4873 2.28475 74.0463 -1.67384 67.2009 5.19163C60.4443 11.9675 65.4579 27.9018 81.2697 42.268C91.4451 53.8606 91.2264 56.8984 89.3511 64.1192C88.0374 69.1771 81.3679 81.9229 87.6334 88.1951C93.8988 94.4673 98.4624 100.952 95.0096 106.403C89.7536 114.698 97.7359 124.812 97.7359 124.812Z" fill="white"/>
</g>
</mask>
<g mask="url(#mask1_4470_24448)">
<g id="Group_3">
<path id="Vector_13" d="M105.871 123.009H105.567C105.582 120.898 105.572 118.78 105.536 116.712C105.273 101.332 103.583 86.5331 100.517 72.7268C97.9193 61.0311 94.2985 49.8842 89.7555 39.5924C86.1038 31.3199 81.8381 23.5526 77.0788 16.5071C73.7322 11.5515 70.1795 7.00916 66.5175 2.99663C65.8837 2.30342 65.1952 1.62529 64.5281 0.970147C63.6281 0.0857897 62.6971 -0.828707 61.8818 -1.80586L62.1148 -2.00098C62.9221 -1.03493 63.8459 -0.12598 64.7444 0.753618C65.4139 1.41114 66.1063 2.09166 66.7457 2.792C70.4164 6.81484 73.9786 11.3715 77.3323 16.3342C82.1035 23.3932 86.3772 31.1779 90.0368 39.4671C94.5877 49.778 98.2148 60.9439 100.817 72.6578C103.888 86.4847 105.579 101.304 105.844 116.705C105.876 118.774 105.887 120.895 105.871 123.009Z" fill="#FCFDFE"/>
<path id="Vector_14" d="M94.7725 52.3645C90.1621 37.8151 99.1166 13.3299 99.2093 13.084L99.4946 13.1895C99.4034 13.4346 90.4854 37.823 95.0648 52.2725L94.7725 52.3645Z" fill="#FCFDFE"/>
<path id="Vector_15" d="M104.042 93.8888C102.107 83.8579 85.0018 73.9943 84.8291 73.8959L84.9796 73.6318C85.1532 73.731 102.38 83.6635 104.341 93.8309L104.042 93.8888Z" fill="#FCFDFE"/>
<path id="Vector_16" d="M104.656 99.7648C104.568 92.9343 108.079 83.5958 114.541 73.4689C114.69 73.2365 114.807 73.0533 114.823 73.0176L114.938 73.0731H115.117C115.117 73.1326 115.117 73.1326 114.8 73.6323C108.369 83.71 104.875 92.985 104.963 99.7617L104.656 99.7648Z" fill="#FCFDFE"/>
<path id="Vector_17" d="M105.54 119.161C103.364 112.197 93.236 108.203 93.1338 108.164L93.2431 107.88C93.3469 107.92 103.61 111.968 105.83 119.07L105.54 119.161Z" fill="#FCFDFE"/>
<path id="Vector_18" d="M106.044 123.096L105.759 122.99C107.863 117.303 111.662 112.039 117.372 106.897L117.575 107.124C111.902 112.231 108.131 117.456 106.044 123.096Z" fill="#FCFDFE"/>
<path id="Vector_19" d="M79.8213 20.7145C76.8169 12.7925 75.4969 3.78558 75.0628 0.82556C74.9835 0.30605 74.9265 -0.1048 74.9043 -0.168252L75.1943 -0.266602C75.222 -0.182528 75.264 0.0974523 75.3638 0.778764C75.7964 3.73085 77.1124 12.7132 80.1057 20.6074L79.8213 20.7145Z" fill="#FCFDFE"/>
<path id="Vector_20" d="M86.5778 32.8122C81.8042 26.6788 65.7468 24.738 65.582 24.7221L65.6169 24.4199C68.566 24.8088 71.487 25.3882 74.3614 26.1545C80.5849 27.8297 84.7745 30.0084 86.8139 32.629L86.5778 32.8122Z" fill="#FCFDFE"/>
</g>
</g>
</g>
<path id="Vector_21" d="M77.1985 78.2788C77.2659 78.3082 77.3316 78.3399 77.4006 78.3669C82.2549 80.2379 87.4048 81.1825 92.4185 82.2208C93.0943 82.3604 93.7741 82.4778 94.457 82.5809C95.3634 80.0428 96.0567 76.3063 92.8083 75.3061C87.763 73.7516 87.7099 64.8469 89.121 61.7076C90.864 57.8212 94.7462 48.6921 86.9865 46.1667C80.5246 44.0641 75.9253 44.03 75.5379 35.6766C75.1504 27.3232 70.6375 22.0781 63.0696 22.5151C55.1054 22.9728 48.6617 12.3169 42.1118 15.8131C30.7028 21.906 40.8505 40.3871 54.6301 45.8265C68.4096 51.2659 60.4415 56.1889 60.0176 63.0187C59.4361 72.3437 72.0494 70.4497 75.3485 74.1402C76.4609 75.3902 76.9973 76.8401 77.1985 78.2788Z" fill="#0E70F8"/>
<g id="Clip path group_3">
<mask id="mask2_4470_24448" style="mask-type:luminance" maskUnits="userSpaceOnUse" x="37" y="15" width="59" height="69">
<g id="clip-path-3">
<path id="Vector_22" d="M76.7881 83.416H94.1393C95.1503 80.9573 96.437 76.4237 92.8115 75.3061C87.7661 73.7516 87.713 64.8469 89.1241 61.7076C90.8672 57.8212 94.7494 48.6921 86.9897 46.1667C80.5277 44.0641 75.9285 44.03 75.541 35.6766C75.1536 27.3232 70.6375 22.0781 63.0696 22.5151C55.1054 22.9728 48.6617 12.3169 42.1118 15.8131C30.7028 21.906 40.8505 40.3871 54.6301 45.8265C68.4096 51.2659 60.4415 56.1889 60.0177 63.0187C59.4353 72.3437 72.0486 70.4497 75.3477 74.1402C77.9298 77.0336 77.4148 80.9946 76.7881 83.416Z" fill="white"/>
</g>
</mask>
<g mask="url(#mask2_4470_24448)">
<g id="Group_4">
<path id="Vector_23" d="M84.9937 80.6778C82.399 67.4838 76.6248 54.6722 68.2962 43.6284C59.9208 32.5244 49.1821 23.5047 37.2383 17.5521L37.3738 17.2793C49.3564 23.2533 60.1316 32.3007 68.5354 43.4452C76.8918 54.5254 82.685 67.3799 85.2885 80.6191L84.9937 80.6778Z" fill="#FCFDFE"/>
<path id="Vector_24" d="M81.146 66.2187H80.8418C80.8893 55.2535 90.2836 46.7668 90.3786 46.6875L90.5807 46.9143C90.4872 46.9952 81.1928 55.3915 81.146 66.2187Z" fill="#FCFDFE"/>
<path id="Vector_25" d="M83.8779 75.7292C78.8072 66.2242 59.1092 64.7838 58.9111 64.7727L58.9317 64.4697C59.1314 64.4832 78.9989 65.9339 84.1457 75.5857L83.8779 75.7292Z" fill="#FCFDFE"/>
<path id="Vector_26" d="M67.5924 42.7267C64.1118 34.6009 69.4257 22.2144 69.4804 22.0898L69.7585 22.212C69.7054 22.3349 64.4454 34.6025 67.8721 42.6061L67.5924 42.7267Z" fill="#FCFDFE"/>
<path id="Vector_27" d="M55.6449 29.9619C47.3536 24.8105 34.4154 27.5888 34.2855 27.6174L34.2197 27.3208C34.3505 27.2914 47.4074 24.4861 55.805 29.7002L55.6449 29.9619Z" fill="#FCFDFE"/>
</g>
</g>
</g>
<path id="Vector_28" d="M105.707 96.7617L105.806 97.2479C97.3955 97.1884 87.2169 93.1307 87.1187 93.0903C87.045 93.0601 87.2185 92.5351 87.2486 92.4629C87.2556 92.4454 87.2659 92.4295 87.2791 92.416C87.2922 92.4025 87.3079 92.3918 87.3252 92.3844C87.3425 92.3771 87.3611 92.3732 87.3799 92.3731C87.3987 92.3729 87.4174 92.3765 87.4348 92.3836C87.533 92.424 97.3543 96.4159 105.707 96.4738C105.745 96.4738 105.782 96.4889 105.809 96.5159C105.836 96.5428 105.851 96.5793 105.851 96.6174C105.851 96.6555 105.836 96.692 105.809 96.7189C105.782 96.7458 105.745 96.7609 105.707 96.7609L105.707 96.7617Z" fill="#D8DEE8"/>
<path id="Vector_29" d="M79.6779 221.452L16.3682 217.101V56.1493L79.6779 51.9131V221.452Z" fill="url(#paint1_linear_4470_24448)"/>
<path id="Vector_30" opacity="0.61" d="M21.2617 210.066V63.1933L79.6783 59.6455V213.719L21.2617 210.066Z" fill="white"/>
<g id="Clip path group_4">
<mask id="mask3_4470_24448" style="mask-type:luminance" maskUnits="userSpaceOnUse" x="21" y="59" width="59" height="155">
<g id="clip-path-4">
<path id="Vector_31" d="M21.2617 210.066V63.1932L79.6791 59.6455V213.719L21.2617 210.066Z" fill="white"/>
</g>
</mask>
<g mask="url(#mask3_4470_24448)">
<g id="Group_5">
<path id="Vector_32" d="M253 97.7897L190.179 99.4553C189.969 68.2918 189.797 23.7646 190.137 19.6323C190.042 20.5279 189.792 21.4003 189.4 22.2108L181.077 15.707C180.185 17.5804 180.158 19.1469 180.085 23.3339C180.044 25.7094 180.016 29.1199 180 33.4695C179.974 40.749 179.984 50.7966 180.029 63.333C180.109 84.6607 180.261 106.111 180.263 106.326L180.31 112.806L201.86 112.444V159.128L161.215 158.43L136.932 114.528L103.577 115.064L148.38 41.8039L141.293 33.9819L92.0396 115.252L70.8457 115.593C70.875 108.222 70.925 95.1192 70.9535 82.0703C70.9788 70.5451 70.9844 61.3177 70.9701 54.6457C70.9408 41.3399 70.8861 41.1876 70.5859 40.3445L66.6244 43.4996C66.5209 43.2113 66.4544 42.9109 66.4263 42.6058C66.6331 45.3746 66.5404 85.7846 66.4168 115.663L44.2849 116.019C40.2672 94.5386 30.8698 44.3467 30.5537 42.9603L23.1853 47.187L23.1671 47.1077C23.5688 49.0485 31.8752 93.6748 37.4236 123.535L38.2191 127.827L84.596 127.531L55.7834 175.075L-0.761719 173.25V184.585L59.5159 187.115L95.9963 127.46L132.316 127.229L149.31 158.227L104.41 157.455V245.508L109.113 245.914V164.132L153.086 165.113L197.431 246.001L205.592 238.661L165.058 165.382L207.309 166.325V112.353L252.996 111.584L253 97.7897Z" fill="white"/>
</g>
</g>
</g>
<path id="Vector_33" d="M122.86 212.203H196.698L196.698 61.3849H122.86L122.86 212.203Z" fill="url(#paint2_linear_4470_24448)"/>
<path id="Vector_34" opacity="0.33" d="M190.711 205.314V68.1699H122.86L122.86 205.314H190.711Z" fill="white"/>
<g id="Clip path group_5">
<mask id="mask4_4470_24448" style="mask-type:luminance" maskUnits="userSpaceOnUse" x="122" y="68" width="69" height="138">
<g id="clip-path-5">
<path id="Vector_35" d="M190.712 205.314V68.1699H122.861L122.861 205.314H190.712Z" fill="white"/>
</g>
</mask>
<g mask="url(#mask4_4470_24448)">
<g id="Group_6">
<path id="Vector_36" d="M217.558 106.215H161.433C161.237 80.7213 161.075 44.2882 161.394 40.9316C161.305 41.6585 161.07 42.36 160.704 42.9938L152.868 37.0674C152.023 38.5458 151.996 39.8347 151.928 43.2793C151.889 45.2336 151.862 48.0382 151.849 51.6248C151.825 57.6218 151.833 65.9014 151.877 76.2329C151.95 93.809 152.097 111.486 152.098 111.662L152.143 117.002H172.259V154.856H133.775L109.64 117.845H74.9864L121.126 56.639L114.038 49.58L62.5751 117.842H39.1723C39.2064 111.235 39.2611 99.4911 39.2936 87.7954C39.3229 77.4655 39.3292 69.1953 39.3126 63.2134C39.2793 51.2845 39.2183 51.1449 38.8808 50.3645L34.4186 52.9303C34.3036 52.6704 34.228 52.3948 34.1944 52.1126C34.432 54.6173 34.3243 90.9624 34.1841 117.839H8.6944C3.9652 98.0397 -2.84297 69.4769 -3.22248 68.1698L-10.998 71.9579L-10.2905 79.235C-9.80327 81.0711 -6.01215 96.9737 0.597955 124.661L1.54871 128.627H54.4454L22.0501 171.601H-3.09889L-2.65995 182.388H26.3332L66.8574 128.629H104.949L122.053 154.856H75.8753V231.712H80.8668V160.589H125.795L168.182 225.583L175.687 219.115L137.522 160.589H177.251V116.999H217.56L217.558 106.215Z" fill="white"/>
</g>
</g>
</g>
<path id="Vector_37" d="M122.86 212.203L79.6787 221.452V51.9131L122.86 61.3848V212.203Z" fill="url(#paint3_linear_4470_24448)"/>
<g id="Vector_38" style="mix-blend-mode:soft-light" opacity="0.33">
<path d="M79.6787 213.719V59.6455L122.86 68.2638V205.325L79.6787 213.719Z" fill="white"/>
</g>
<g id="Clip path group_6">
<mask id="mask5_4470_24448" style="mask-type:luminance" maskUnits="userSpaceOnUse" x="79" y="59" width="44" height="155">
<g id="clip-path-6">
<path id="Vector_39" d="M79.6787 213.719V59.6455L122.86 68.2638V205.324L79.6787 213.719Z" fill="white"/>
</g>
</mask>
<g mask="url(#mask5_4470_24448)">
<g id="Group_7">
<path id="Vector_40" d="M166.015 110.182L141.835 107.998C141.744 83.8941 141.669 49.4391 141.816 46.307C141.783 46.9366 141.676 47.5602 141.499 48.1653L137.807 41.4926C137.403 42.7918 137.391 44.0227 137.358 47.3127C137.34 49.1797 137.326 51.8661 137.32 55.2965C137.308 61.0381 137.312 68.9695 137.333 78.8704C137.368 95.7096 137.438 112.644 137.439 112.817L137.46 117.932L146.798 118.487V153.716L128.445 154.618L115.847 117.507L96.0401 116.38L121.955 56.5227L118.208 48.5016L88.3889 115.945L73.0937 115.073C73.1167 107.528 73.1539 94.1154 73.1729 80.7604C73.1927 68.9664 73.1967 59.5216 73.1856 52.6878C73.1634 39.0584 73.1214 38.8871 72.8917 37.9433L69.8326 40.1307C69.752 39.8094 69.699 39.4817 69.6742 39.1512C69.8366 42.0755 69.7645 83.9251 69.667 114.878L51.232 113.83C47.631 89.5564 38.8468 30.5075 38.5426 28.8086L31.2773 31.2832L31.259 31.1801C31.6639 33.5944 39.8071 87.3467 45.0212 121.818L45.7572 126.686L83.2113 127.656L61.1063 177.657L5.17676 183.109V197.531L64.1701 189.949L91.0621 127.856L113.285 128.432L122.439 154.912L96.5686 156.191V238.809L99.5476 238.005V162.163L124.379 160.527L144.939 220.004L148.327 213.157L130.32 160.135L149.026 158.902V118.615L166.015 119.622V110.182Z" fill="#D8DEE8"/>
</g>
</g>
</g>
<path id="Vector_41" d="M225.408 85.6258C225.408 111.597 189.063 158.992 172.614 179.107C168.521 184.113 160.87 184.113 156.777 179.107C140.328 158.989 103.983 111.597 103.983 85.6258C103.983 52.0599 131.165 24.8486 164.695 24.8486C198.225 24.8486 225.408 52.0599 225.408 85.6258Z" fill="url(#paint4_linear_4470_24448)"/>
<path id="Vector_42" d="M164.696 221.099C171.55 221.099 177.106 215.537 177.106 208.676C177.106 201.815 171.55 196.253 164.696 196.253C157.842 196.253 152.286 201.815 152.286 208.676C152.286 215.537 157.842 221.099 164.696 221.099Z" fill="url(#paint5_linear_4470_24448)"/>
<path id="Vector_43" d="M223.765 85.6258C223.765 111.597 187.42 158.992 170.972 179.107C166.879 184.113 159.227 184.113 155.134 179.107C138.686 158.989 102.341 111.597 102.341 85.6258C102.341 52.0599 129.523 24.8486 163.053 24.8486C196.584 24.8486 223.765 52.0599 223.765 85.6258Z" fill="url(#paint6_linear_4470_24448)"/>
<path id="Vector_44" d="M163.053 119.524C181.753 119.524 196.913 104.348 196.913 85.6271C196.913 66.9065 181.753 51.7305 163.053 51.7305C144.352 51.7305 129.192 66.9065 129.192 85.6271C129.192 104.348 144.352 119.524 163.053 119.524Z" fill="white"/>
<path id="Vector_45" d="M163.052 221.099C169.906 221.099 175.462 215.537 175.462 208.676C175.462 201.815 169.906 196.253 163.052 196.253C156.199 196.253 150.643 201.815 150.643 208.676C150.643 215.537 156.199 221.099 163.052 221.099Z" fill="url(#paint7_linear_4470_24448)"/>
<g id="Group_8" style="mix-blend-mode:soft-light">
<path id="Vector_46" d="M162.785 154.154C166.637 128.759 183.384 120.631 180.512 96.6505C177.197 68.9975 152.739 61.6323 152.148 37.021C152.053 33.0553 152.592 29.2379 153.607 25.5791C124.563 30.1214 102.341 55.2737 102.341 85.6202C102.341 111.592 138.686 158.986 155.134 179.101C156.26 180.481 157.726 181.543 159.388 182.181C161.05 182.818 162.85 183.01 164.609 182.736C161.665 171.62 161.576 162.122 162.785 154.154Z" fill="white"/>
</g>
<path id="Vector_47" d="M142.357 84.8657C143.066 84.8657 143.746 84.5839 144.247 84.0821C144.748 83.5804 145.03 82.9 145.03 82.1904H139.686C139.686 82.8998 139.967 83.5802 140.468 84.0819C140.969 84.5835 141.649 84.8655 142.357 84.8657Z" fill="#0E70F8"/>
<path id="Vector_48" d="M184.634 65.3975H142.383L139.686 80.288H187.549L184.634 65.3975Z" fill="#0E70F8"/>
<path id="Vector_49" d="M148.438 84.8657C149.147 84.8657 149.827 84.5839 150.328 84.0821C150.829 83.5804 151.111 82.9 151.111 82.1904H145.767C145.767 82.8998 146.048 83.5802 146.549 84.0819C147.05 84.5835 147.73 84.8655 148.438 84.8657Z" fill="#0E70F8"/>
<path id="Vector_50" d="M154.52 84.8657C155.229 84.8655 155.908 84.5835 156.409 84.0819C156.91 83.5802 157.192 82.8998 157.192 82.1904H151.848C151.848 82.9 152.129 83.5804 152.63 84.0821C153.132 84.5839 153.811 84.8657 154.52 84.8657Z" fill="#0E70F8"/>
<path id="Vector_51" d="M160.601 84.8657C161.31 84.8655 161.989 84.5835 162.49 84.0819C162.991 83.5802 163.273 82.8998 163.273 82.1904H157.929C157.929 82.5418 157.998 82.8896 158.132 83.2142C158.266 83.5388 158.463 83.8337 158.711 84.0821C158.96 84.3306 159.254 84.5276 159.578 84.6621C159.903 84.7965 160.25 84.8657 160.601 84.8657Z" fill="#0E70F8"/>
<path id="Vector_52" d="M184.921 84.8657C184.213 84.8657 183.533 84.5839 183.032 84.0821C182.531 83.5804 182.249 82.9 182.249 82.1904H187.593C187.593 82.8998 187.312 83.5802 186.811 84.0819C186.31 84.5835 185.63 84.8655 184.921 84.8657Z" fill="#0E70F8"/>
<path id="Vector_53" d="M178.841 84.8657C178.132 84.8655 177.452 84.5835 176.951 84.0819C176.45 83.5802 176.169 82.8998 176.169 82.1904H181.513C181.513 82.9 181.231 83.5804 180.73 84.0821C180.229 84.5839 179.549 84.8657 178.841 84.8657Z" fill="#0E70F8"/>
<path id="Vector_54" d="M172.76 84.8657C172.051 84.8655 171.371 84.5835 170.87 84.0819C170.369 83.5802 170.088 82.8998 170.088 82.1904H175.429C175.429 82.8994 175.148 83.5794 174.647 84.081C174.147 84.5826 173.468 84.8649 172.76 84.8657Z" fill="#0E70F8"/>
<path id="Vector_55" d="M166.678 84.8657C165.969 84.8657 165.29 84.5839 164.789 84.0821C164.287 83.5804 164.006 82.9 164.006 82.1904H169.35C169.35 82.8998 169.068 83.5802 168.567 84.0819C168.066 84.5835 167.387 84.8655 166.678 84.8657Z" fill="#0E70F8"/>
<path id="Vector_56" d="M142.37 85.8955V105.685H184.909V85.8955H142.37ZM178.694 101.075H148.587V90.123H178.694V101.075Z" fill="#0E70F8"/>
<path id="Vector_57" d="M45.3712 52.5945C45.3712 57.1408 39.0091 65.4355 36.1307 68.9571C35.9627 69.1627 35.7512 69.3283 35.5114 69.4421C35.2716 69.5558 35.0096 69.6148 34.7442 69.6148C34.4789 69.6148 34.2168 69.5558 33.977 69.4421C33.7373 69.3283 33.5257 69.1627 33.3577 68.9571C30.4785 65.4355 24.1172 57.1392 24.1172 52.5945C24.1414 49.789 25.2716 47.1066 27.2619 45.1314C29.2521 43.1561 31.9413 42.0479 34.7438 42.0479C37.5464 42.0479 40.2355 43.1561 42.2257 45.1314C44.216 47.1066 45.3463 49.789 45.3705 52.5945H45.3712Z" fill="#0E70F8"/>
<path id="Vector_58" d="M40.5954 53.548C41.1198 50.3138 38.9259 47.2663 35.6952 46.7413C32.4644 46.2164 29.4203 48.4126 28.8958 51.6468C28.3714 54.8811 30.5653 57.9285 33.7961 58.4535C37.0268 58.9785 40.071 56.7822 40.5954 53.548Z" fill="white"/>
<path id="Vector_59" d="M34.7439 76.306C35.9433 76.306 36.9156 75.3327 36.9156 74.132C36.9156 72.9313 35.9433 71.958 34.7439 71.958C33.5446 71.958 32.5723 72.9313 32.5723 74.132C32.5723 75.3327 33.5446 76.306 34.7439 76.306Z" fill="#0E70F8"/>
<path id="Vector_60" d="M31.4369 52.699C31.551 52.6988 31.6605 52.6533 31.7411 52.5724C31.8218 52.4915 31.8671 52.3819 31.8671 52.2676H31.0059C31.0061 52.3819 31.0515 52.4916 31.1323 52.5724C31.2131 52.6533 31.3226 52.6988 31.4369 52.699Z" fill="#0E70F8"/>
<path id="Vector_61" d="M38.2522 49.5605H31.44L31.0059 51.9614H38.722L38.2522 49.5605Z" fill="#0E70F8"/>
<path id="Vector_62" d="M32.4197 52.699C32.534 52.6988 32.6435 52.6533 32.7243 52.5724C32.805 52.4916 32.8505 52.3819 32.8507 52.2676H31.9863C31.9864 52.3244 31.9977 52.3807 32.0196 52.4331C32.0414 52.4856 32.0734 52.5332 32.1136 52.5733C32.1539 52.6134 32.2016 52.6451 32.2542 52.6667C32.3067 52.6883 32.3629 52.6993 32.4197 52.699Z" fill="#0E70F8"/>
<path id="Vector_63" d="M33.3978 52.699C33.512 52.6988 33.6214 52.6533 33.7021 52.5724C33.7827 52.4915 33.828 52.3819 33.828 52.2676H32.9668C32.9668 52.382 33.0122 52.4918 33.093 52.5727C33.1739 52.6536 33.2835 52.699 33.3978 52.699Z" fill="#0E70F8"/>
<path id="Vector_64" d="M34.3783 52.699C34.4925 52.6988 34.602 52.6533 34.6828 52.5724C34.7636 52.4916 34.8091 52.3819 34.8093 52.2676H33.9473C33.9475 52.3819 33.993 52.4916 34.0737 52.5724C34.1545 52.6533 34.264 52.6988 34.3783 52.699Z" fill="#0E70F8"/>
<path id="Vector_65" d="M38.2992 52.699C38.1849 52.699 38.0752 52.6536 37.9944 52.5727C37.9136 52.4918 37.8682 52.382 37.8682 52.2676H38.7294C38.7294 52.3819 38.6841 52.4915 38.6034 52.5724C38.5228 52.6533 38.4133 52.6988 38.2992 52.699Z" fill="#0E70F8"/>
<path id="Vector_66" d="M37.3189 52.699C37.2047 52.6988 37.0953 52.6533 37.0146 52.5724C36.934 52.4915 36.8887 52.3819 36.8887 52.2676H37.7499C37.7499 52.382 37.7045 52.4918 37.6237 52.5727C37.5428 52.6536 37.4332 52.699 37.3189 52.699Z" fill="#0E70F8"/>
<path id="Vector_67" d="M36.3382 52.699C36.224 52.6988 36.1145 52.6533 36.0337 52.5724C35.9529 52.4916 35.9074 52.3819 35.9072 52.2676H36.7692C36.769 52.3819 36.7236 52.4916 36.6428 52.5724C36.562 52.6533 36.4525 52.6988 36.3382 52.699Z" fill="#0E70F8"/>
<path id="Vector_68" d="M35.3587 52.699C35.2444 52.699 35.1348 52.6536 35.054 52.5727C34.9731 52.4918 34.9277 52.382 34.9277 52.2676H35.789C35.789 52.3819 35.7437 52.4915 35.663 52.5724C35.5823 52.6533 35.4729 52.6988 35.3587 52.699Z" fill="#0E70F8"/>
<path id="Vector_69" d="M31.4385 52.8643V56.0551H38.2966V52.8643H31.4385ZM37.2951 55.3119H32.4407V53.5464H37.2951V55.3119Z" fill="#0E70F8"/>
<path id="Vector_70" d="M74.8869 101.018C74.8869 105.564 68.5248 113.859 65.6464 117.38C65.4783 117.586 65.2668 117.751 65.027 117.865C64.7872 117.979 64.5252 118.038 64.2598 118.038C63.9945 118.038 63.7325 117.979 63.4927 117.865C63.2529 117.751 63.0413 117.586 62.8733 117.38C59.9941 113.859 53.6328 105.562 53.6328 101.018C53.6328 98.1969 54.7524 95.4909 56.7454 93.4958C58.7384 91.5007 61.4414 90.3799 64.2598 90.3799C67.0783 90.3799 69.7813 91.5007 71.7743 93.4958C73.7672 95.4909 74.8869 98.1969 74.8869 101.018Z" fill="#0E70F8"/>
<path id="Vector_71" d="M64.2584 106.953C67.5314 106.953 70.1847 104.297 70.1847 101.021C70.1847 97.7441 67.5314 95.0879 64.2584 95.0879C60.9853 95.0879 58.332 97.7441 58.332 101.021C58.332 104.297 60.9853 106.953 64.2584 106.953Z" fill="white"/>
<path id="Vector_72" d="M66.4037 122.912C66.5959 121.727 65.792 120.61 64.6081 120.418C63.4242 120.225 62.3087 121.03 62.1165 122.215C61.9243 123.401 62.7283 124.517 63.9122 124.71C65.0961 124.902 66.2116 124.097 66.4037 122.912Z" fill="#0E70F8"/>
<path id="Vector_73" d="M60.9505 101.124C61.0071 101.124 61.0631 101.113 61.1154 101.091C61.1676 101.069 61.2151 101.038 61.255 100.997C61.295 100.957 61.3267 100.91 61.3482 100.857C61.3698 100.805 61.3809 100.749 61.3808 100.692H60.5195C60.5195 100.807 60.5649 100.917 60.6458 100.997C60.7266 101.078 60.8362 101.124 60.9505 101.124Z" fill="#0E70F8"/>
<path id="Vector_74" d="M67.7658 97.9854H60.9537L60.5195 100.386H68.2357L67.7658 97.9854Z" fill="#0E70F8"/>
<path id="Vector_75" d="M61.9312 101.124C61.9878 101.124 62.0439 101.113 62.0962 101.091C62.1485 101.069 62.196 101.038 62.236 100.997C62.276 100.957 62.3078 100.91 62.3294 100.857C62.3511 100.805 62.3623 100.749 62.3623 100.692H61.4971C61.4971 100.749 61.5083 100.806 61.5302 100.858C61.552 100.911 61.5841 100.958 61.6244 100.999C61.6648 101.039 61.7127 101.07 61.7653 101.092C61.818 101.113 61.8744 101.124 61.9312 101.124Z" fill="#0E70F8"/>
<path id="Vector_76" d="M62.9115 101.124C62.968 101.124 63.0241 101.113 63.0763 101.091C63.1285 101.069 63.176 101.038 63.216 100.997C63.2559 100.957 63.2876 100.91 63.3092 100.857C63.3307 100.805 63.3418 100.749 63.3417 100.692H62.4805C62.4804 100.749 62.4914 100.805 62.5131 100.858C62.5347 100.91 62.5664 100.958 62.6065 100.998C62.6465 101.038 62.6941 101.07 62.7464 101.091C62.7988 101.113 62.8548 101.124 62.9115 101.124Z" fill="#0E70F8"/>
<path id="Vector_77" d="M63.8919 101.124C64.0063 101.124 64.1159 101.078 64.1967 100.997C64.2775 100.917 64.323 100.807 64.323 100.692H63.4609C63.4609 100.807 63.5064 100.917 63.5872 100.997C63.668 101.078 63.7776 101.124 63.8919 101.124Z" fill="#0E70F8"/>
<path id="Vector_78" d="M67.8128 101.124C67.7562 101.124 67.7001 101.113 67.6478 101.091C67.5954 101.07 67.5479 101.038 67.5078 100.998C67.4678 100.958 67.4361 100.91 67.4144 100.858C67.3928 100.805 67.3817 100.749 67.3818 100.692H68.2431C68.2432 100.749 68.2321 100.805 68.2105 100.857C68.189 100.91 68.1573 100.957 68.1173 100.997C68.0774 101.038 68.0299 101.069 67.9777 101.091C67.9254 101.113 67.8694 101.124 67.8128 101.124Z" fill="#0E70F8"/>
<path id="Vector_79" d="M66.8326 101.124C66.776 101.124 66.72 101.113 66.6677 101.091C66.6155 101.069 66.568 101.038 66.5281 100.997C66.4881 100.957 66.4564 100.91 66.4349 100.857C66.4133 100.805 66.4022 100.749 66.4023 100.692H67.2636C67.2637 100.749 67.2526 100.805 67.231 100.858C67.2094 100.91 67.1776 100.958 67.1376 100.998C67.0975 101.038 67.05 101.07 66.9976 101.091C66.9453 101.113 66.8892 101.124 66.8326 101.124Z" fill="#0E70F8"/>
<path id="Vector_80" d="M65.8548 101.124C65.7982 101.124 65.7422 101.113 65.6899 101.091C65.6376 101.069 65.5901 101.038 65.5501 100.997C65.51 100.957 65.4783 100.91 65.4566 100.857C65.435 100.805 65.4238 100.749 65.4238 100.692H66.2858C66.2858 100.807 66.2404 100.917 66.1596 100.997C66.0788 101.078 65.9691 101.124 65.8548 101.124Z" fill="#0E70F8"/>
<path id="Vector_81" d="M64.8724 101.124C64.8158 101.124 64.7597 101.113 64.7074 101.091C64.655 101.07 64.6075 101.038 64.5674 100.998C64.5274 100.958 64.4956 100.91 64.474 100.858C64.4524 100.805 64.4413 100.749 64.4414 100.692H65.3003C65.3005 100.806 65.2556 100.916 65.1754 100.997C65.0952 101.077 64.9862 101.123 64.8724 101.124Z" fill="#0E70F8"/>
<path id="Vector_82" d="M60.9521 101.291V104.481H67.8102V101.291H60.9521ZM66.8088 103.738H61.9544V101.97H66.8088V103.738Z" fill="#0E70F8"/>
<path id="Vector_83" d="M51.5611 159.535C51.5611 164.081 45.1998 172.376 42.3206 175.897C42.1526 176.102 41.941 176.268 41.7012 176.382C41.4614 176.496 41.1994 176.555 40.9341 176.555C40.6687 176.555 40.4067 176.496 40.1669 176.382C39.9271 176.268 39.7156 176.102 39.5476 175.897C36.6692 172.376 30.307 164.079 30.307 159.535C30.2949 158.13 30.5608 156.737 31.0894 155.436C31.6181 154.134 32.3989 152.951 33.3869 151.953C34.3748 150.956 35.5504 150.164 36.8457 149.623C38.141 149.083 39.5304 148.805 40.9337 148.805C42.337 148.805 43.7263 149.083 45.0216 149.623C46.3169 150.164 47.4925 150.956 48.4805 151.953C49.4685 152.951 50.2493 154.134 50.7779 155.436C51.3065 156.737 51.5724 158.13 51.5603 159.535H51.5611Z" fill="#0E70F8"/>
<path id="Vector_84" d="M40.9351 165.467C44.2082 165.467 46.8615 162.811 46.8615 159.534C46.8615 156.258 44.2082 153.602 40.9351 153.602C37.6621 153.602 35.0088 156.258 35.0088 159.534C35.0088 162.811 37.6621 165.467 40.9351 165.467Z" fill="white"/>
<path id="Vector_85" d="M43.0483 181.564C43.3238 180.395 42.6009 179.224 41.4336 178.948C40.2663 178.672 39.0966 179.396 38.8211 180.565C38.5456 181.733 39.2686 182.904 40.4359 183.18C41.6032 183.456 42.7728 182.732 43.0483 181.564Z" fill="#0E70F8"/>
<path id="Vector_86" d="M37.6275 159.638C37.6841 159.639 37.7402 159.628 37.7925 159.606C37.8449 159.584 37.8924 159.552 37.9325 159.512C37.9725 159.472 38.0043 159.425 38.0259 159.372C38.0475 159.32 38.0586 159.264 38.0585 159.207H37.1973C37.1972 159.264 37.2082 159.32 37.2298 159.372C37.2514 159.424 37.283 159.472 37.323 159.512C37.363 159.552 37.4104 159.584 37.4627 159.606C37.5149 159.627 37.5709 159.638 37.6275 159.638Z" fill="#0E70F8"/>
<path id="Vector_87" d="M44.4426 156.5H37.6313L37.1963 158.901H44.9132L44.4426 156.5Z" fill="#0E70F8"/>
<path id="Vector_88" d="M38.6087 159.638C38.6653 159.638 38.7213 159.627 38.7736 159.606C38.8258 159.584 38.8733 159.552 38.9132 159.512C38.9532 159.472 38.9849 159.424 39.0064 159.372C39.028 159.32 39.0391 159.264 39.039 159.207H38.1777C38.1777 159.321 38.2231 159.431 38.304 159.512C38.3848 159.593 38.4944 159.638 38.6087 159.638Z" fill="#0E70F8"/>
<path id="Vector_89" d="M39.5885 159.638C39.7028 159.638 39.8124 159.593 39.8932 159.512C39.9741 159.431 40.0195 159.321 40.0195 159.207H39.1543C39.1543 159.264 39.1655 159.32 39.1874 159.373C39.2093 159.425 39.2413 159.473 39.2817 159.513C39.322 159.553 39.3699 159.585 39.4226 159.607C39.4752 159.628 39.5316 159.639 39.5885 159.638Z" fill="#0E70F8"/>
<path id="Vector_90" d="M40.5689 159.638C40.6255 159.639 40.6816 159.628 40.7339 159.606C40.7863 159.584 40.8338 159.552 40.8739 159.512C40.9139 159.472 40.9457 159.425 40.9673 159.372C40.9889 159.32 41 159.264 40.9999 159.207H40.1387C40.1386 159.264 40.1496 159.32 40.1712 159.372C40.1928 159.424 40.2244 159.472 40.2644 159.512C40.3044 159.552 40.3518 159.584 40.4041 159.606C40.4563 159.627 40.5123 159.638 40.5689 159.638Z" fill="#0E70F8"/>
<path id="Vector_91" d="M44.4898 159.638C44.4332 159.638 44.3772 159.627 44.325 159.606C44.2727 159.584 44.2253 159.552 44.1853 159.512C44.1453 159.472 44.1137 159.424 44.0921 159.372C44.0705 159.32 44.0595 159.264 44.0596 159.207H44.9208C44.9209 159.264 44.9098 159.32 44.8882 159.372C44.8666 159.425 44.8348 159.472 44.7948 159.512C44.7547 159.552 44.7072 159.584 44.6548 159.606C44.6025 159.628 44.5464 159.639 44.4898 159.638Z" fill="#0E70F8"/>
<path id="Vector_92" d="M43.5121 159.638C43.3978 159.638 43.2881 159.593 43.2073 159.512C43.1265 159.431 43.0811 159.321 43.0811 159.207H43.9431C43.9431 159.321 43.8977 159.431 43.8168 159.512C43.736 159.593 43.6264 159.638 43.5121 159.638Z" fill="#0E70F8"/>
<path id="Vector_93" d="M42.5296 159.638C42.473 159.639 42.4169 159.628 42.3646 159.606C42.3122 159.584 42.2647 159.552 42.2246 159.512C42.1846 159.472 42.1529 159.425 42.1312 159.372C42.1096 159.32 42.0985 159.264 42.0986 159.207H42.9575C42.9577 159.321 42.9128 159.43 42.8326 159.511C42.7524 159.592 42.6435 159.638 42.5296 159.638Z" fill="#0E70F8"/>
<path id="Vector_94" d="M41.5482 159.638C41.4916 159.638 41.4355 159.627 41.3833 159.606C41.331 159.584 41.2834 159.552 41.2434 159.512C41.2034 159.472 41.1717 159.424 41.15 159.372C41.1283 159.32 41.1172 159.264 41.1172 159.207H41.9792C41.9792 159.321 41.9338 159.431 41.853 159.512C41.7721 159.593 41.6625 159.638 41.5482 159.638Z" fill="#0E70F8"/>
<path id="Vector_95" d="M37.6299 159.805V162.995H44.488V159.805H37.6299ZM43.4857 162.248H38.6321V160.483H43.4857V162.248Z" fill="#0E70F8"/>
<path id="Vector_96" d="M71.2739 133.367C71.2739 133.367 70.4587 129.105 69.6434 127.835C68.8281 126.565 67.3069 125.75 67.3069 125.75C67.3069 125.75 66.99 126.272 67.9994 127.371C69.0088 128.47 68.1673 128.579 67.9994 128.933C67.8314 129.287 68.1935 130.556 68.9184 131.009C69.6434 131.462 69.9151 133.934 69.9151 133.934L71.2739 133.367Z" fill="url(#paint8_linear_4470_24448)"/>
<path id="Vector_97" d="M68.918 132.823L71.5452 132.37C74.6795 138.187 78.3518 141.926 80.8515 144.096C83.806 146.661 85.7138 148.317 88.8481 149.148C93.4783 150.374 97.4786 148.934 97.9975 150.236C98.2518 150.87 97.3708 151.561 95.9597 153.25C91.8509 158.167 92.236 160.817 89.9803 161.548C88.1144 162.151 86.2359 160.853 83.0501 158.577C80.1519 156.507 76.5184 153.912 73.4475 148.964C69.3284 142.33 68.9164 135.8 68.918 132.823Z" fill="#2184F9"/>
<path id="Vector_98" d="M107.51 150.765C107.935 150.923 114.429 153.511 115.763 160.295C115.871 160.843 116.914 166.671 112.965 170.789C108.538 175.406 100.012 175.292 96.6275 171.432C95.9479 170.64 95.4563 169.705 95.1895 168.696L96.0808 166.325C97.1686 165.01 98.6502 164.698 99.4417 164.5C101.392 164.019 102.864 164.889 103.982 163.945C104.6 163.424 104.722 162.676 104.832 162.004C105.206 159.723 103.919 158.319 103.825 156.912C103.756 155.861 103.388 153.557 104.759 152.054C105.627 151.106 106.83 150.848 107.51 150.765Z" fill="#2184F9"/>
<path id="Vector_99" d="M110.04 226.373C110.119 225.955 111.466 225.58 112.13 226.135C112.461 226.412 112.689 226.976 112.497 227.23C112.428 227.322 112.714 227.486 112.44 227.489C111.532 227.501 109.964 226.788 110.04 226.373Z" fill="url(#paint9_linear_4470_24448)"/>
<path id="Vector_100" d="M111.452 226.524L112.837 226.327C112.196 225.554 112.314 223.09 112.314 223.09L110.841 223.419C110.841 223.419 111.009 224.096 111.295 225.093C111.392 225.435 111.436 225.969 111.452 226.524Z" fill="url(#paint10_linear_4470_24448)"/>
<path id="Vector_101" d="M111.332 226.353C111.332 226.353 112.996 225.968 113.181 226.3C113.365 226.631 113.498 227.518 112.443 227.489C111.388 227.461 111.236 226.634 111.332 226.353Z" fill="url(#paint11_linear_4470_24448)"/>
<path id="Vector_102" d="M91.0281 227.939C91.1612 227.536 92.5477 227.351 93.13 227.998C93.4192 228.319 93.5666 228.908 93.3416 229.134C93.2623 229.213 93.519 229.417 93.2481 229.381C92.348 229.264 90.895 228.339 91.0281 227.939Z" fill="url(#paint12_linear_4470_24448)"/>
<path id="Vector_103" d="M92.4045 228.287H93.8037C93.2761 227.431 93.7388 225.008 93.7388 225.008L92.2334 225.128C92.2334 225.128 92.3047 225.821 92.4481 226.849C92.4972 227.201 92.4655 227.736 92.4045 228.287Z" fill="url(#paint13_linear_4470_24448)"/>
<path id="Vector_104" d="M88.7779 175.311C87.7955 178.562 87.0699 181.885 86.6078 185.25C84.9084 197.628 88.5212 198.02 87.8462 211.741C87.6307 216.119 91.6357 226.215 91.9883 226.438C92.1725 226.457 92.3577 226.465 92.5429 226.46C93.0213 226.442 93.4953 226.362 93.9532 226.223C94.587 226.113 96.8744 219.912 96.3443 216.229C95.9696 213.619 96.0781 210.819 96.296 205.218C96.3308 204.31 98.6507 187.561 98.6507 187.561C99.3558 193.761 100.167 199.029 100.869 203.113C103.13 216.234 110.478 224.176 110.861 224.304C110.94 224.334 111.626 224.585 112.19 224.213C112.336 224.121 112.452 223.989 112.526 223.834C112.723 223.68 112.468 210.733 110.228 200.991C106.975 186.848 108.392 183.542 107.361 177.223C106.468 171.754 88.7779 175.311 88.7779 175.311Z" fill="#021935"/>
<path id="Vector_105" d="M101.919 149.661C99.7587 149.598 94.7935 148.834 92.0592 151.297C92.0117 151.34 92.5719 151.64 92.2969 151.963C91.5672 152.826 90.9207 153.755 90.3661 154.739C89.7893 155.771 89.2688 156.969 88.7435 158.758C88.0761 161.044 87.6468 163.393 87.4624 165.768C86.9624 172.351 87.4624 175.385 87.9084 177.45C89.8606 178.455 94.8933 180.251 100.889 179.359C103.151 179.018 105.339 178.296 107.361 177.224C105.805 172.508 107.026 169.985 107.598 167.659C108.419 164.343 108.433 164.594 109.109 161.959C110.224 157.611 110.407 153.17 109.641 152.261C107.576 149.807 103.853 149.717 101.919 149.661Z" fill="#0E70F8"/>
<path id="Vector_106" d="M92.3066 228.101C92.3066 228.101 94.0124 227.953 94.1447 228.307C94.277 228.661 94.2921 229.558 93.2478 229.381C92.2036 229.204 92.1743 228.366 92.3066 228.101Z" fill="url(#paint14_linear_4470_24448)"/>
<path id="Vector_107" d="M97.3808 145.608C97.0259 144.339 97.647 143.169 97.7833 142.912C98.3569 141.854 98.5035 141.709 98.7768 141.526L99.1571 141.288L99.2023 141.271C99.4455 141.184 100.277 141.159 100.445 141.191C100.983 141.306 101.555 143.5 101.396 146.602C101.418 146.72 101.44 146.84 101.46 146.96C101.545 147.45 101.613 147.93 101.665 148.399C101.689 148.62 101.774 148.829 101.91 149.003C102.046 149.178 102.228 149.312 102.435 149.39C105.293 150.47 105.287 149.608 105.583 150.538C105.742 151.044 102.498 151.862 100.901 151.677C97.3079 151.704 94.3851 151.321 94.6989 150.754C94.8383 150.503 97.6224 149.775 98.406 149.052C99.1191 148.392 99.0644 147.709 99.1191 147.221C98.9028 147.118 97.6423 146.544 97.3808 145.608Z" fill="url(#paint15_linear_4470_24448)"/>
<path id="Vector_108" d="M98.041 140.414C98.041 141.376 98.4966 142.402 98.7272 142.566C98.863 142.673 98.9805 142.802 99.075 142.947C99.0981 142.982 99.1165 143.02 99.1296 143.06C99.3396 143.665 98.3778 144.378 98.5639 144.647C98.6986 144.843 99.3562 144.58 99.4299 144.75C99.5036 144.919 98.9601 145.241 99.0433 145.433C99.1059 145.577 99.4394 145.444 99.651 145.666C99.7563 145.776 99.7254 145.863 99.8364 146.2C99.8937 146.379 99.9671 146.551 100.056 146.716C100.388 147.281 101.324 147.486 101.508 147.261C101.558 147.197 101.515 147.145 101.567 146.933C101.608 146.785 101.67 146.643 101.75 146.511C101.945 146.188 102.414 145.956 102.887 145.616C103.764 144.981 104.002 144.445 104.075 144.267C104.1 144.202 104.116 144.153 104.127 144.118C104.356 143.41 104.356 142.369 104.039 141.729C103.505 140.658 102.304 141.167 101.32 140.105C100.185 138.88 100.861 137.205 100.244 137.02C99.5638 136.815 98.0355 138.638 98.041 140.414Z" fill="#26264F"/>
<path id="Vector_109" d="M98.9093 144.424C99.147 144.1 99.5582 144.404 99.5605 144.82C99.5629 145.237 99.158 145.675 98.7643 145.592C98.3705 145.51 98.5931 144.859 98.9093 144.424Z" fill="url(#paint16_linear_4470_24448)"/>
<path id="Vector_110" d="M106.673 174.253C106.653 174.254 106.634 174.247 106.62 174.234C106.605 174.221 106.596 174.203 106.593 174.184C106.335 171.855 106.814 170.17 107.238 168.683C107.341 168.321 107.439 167.979 107.524 167.637C107.99 165.752 108.195 165.024 108.411 164.253C108.551 163.753 108.697 163.236 108.921 162.372C108.926 162.352 108.939 162.334 108.958 162.324C108.976 162.313 108.997 162.31 109.018 162.315C109.038 162.32 109.056 162.333 109.066 162.352C109.077 162.37 109.08 162.391 109.075 162.412C108.849 163.277 108.704 163.795 108.563 164.296C108.347 165.066 108.143 165.793 107.677 167.675C107.592 168.019 107.493 168.363 107.39 168.727C106.97 170.2 106.495 171.868 106.75 174.166C106.752 174.187 106.746 174.208 106.733 174.224C106.72 174.241 106.701 174.251 106.681 174.253H106.673Z" fill="#9B305E"/>
<path id="Vector_111" d="M99.0999 143.724L98.554 144.437C98.554 144.437 97.9661 145.31 97.6223 144.834C97.3418 144.445 97.2689 144.453 97.2515 144.47C97.2515 144.47 97.2515 144.477 97.2467 144.477C97.242 144.477 97.2879 144.283 97.326 144.114C97.1133 144.419 96.9554 144.758 96.8593 145.117C96.7412 145.56 96.6153 146.033 96.8648 146.489C96.8791 146.516 97.154 146.999 97.6674 147.117C97.6674 147.117 97.8687 147.163 98.722 147.013C98.722 147.013 97.7894 146.336 97.7712 146.175C97.7324 145.738 98.3385 145.502 98.7885 144.605C98.9302 144.326 99.0349 144.03 99.0999 143.724Z" fill="#26264F"/>
</g>
</g>
</g>
<defs>
<linearGradient id="paint0_linear_4470_24448" x1="109.489" y1="87.3269" x2="42.4606" y2="-28.4519" gradientUnits="userSpaceOnUse">
<stop stop-color="#FFC444"/>
<stop offset="1" stop-color="#F36F56"/>
</linearGradient>
<linearGradient id="paint1_linear_4470_24448" x1="16.3674" y1="136.682" x2="79.6779" y2="136.682" gradientUnits="userSpaceOnUse">
<stop stop-color="#FF9085"/>
<stop offset="1" stop-color="#FB6FBB"/>
</linearGradient>
<linearGradient id="paint2_linear_4470_24448" x1="144.397" y1="97.1296" x2="211.777" y2="270.497" gradientUnits="userSpaceOnUse">
<stop stop-color="#FF9085"/>
<stop offset="1" stop-color="#FB6FBB"/>
</linearGradient>
<linearGradient id="paint3_linear_4470_24448" x1="62.0795" y1="136.576" x2="142.054" y2="137.059" gradientUnits="userSpaceOnUse">
<stop stop-color="#FF9085"/>
<stop offset="1" stop-color="#FB6FBB"/>
</linearGradient>
<linearGradient id="paint4_linear_4470_24448" x1="111.098" y1="62.504" x2="172.038" y2="103.519" gradientUnits="userSpaceOnUse">
<stop stop-color="#FFC444"/>
<stop offset="1" stop-color="#F36F56"/>
</linearGradient>
<linearGradient id="paint5_linear_4470_24448" x1="60.1694" y1="138.175" x2="121.11" y2="179.19" gradientUnits="userSpaceOnUse">
<stop stop-color="#FFC444"/>
<stop offset="1" stop-color="#F36F56"/>
</linearGradient>
<linearGradient id="paint6_linear_4470_24448" x1="155.221" y1="63.5605" x2="216.477" y2="221.172" gradientUnits="userSpaceOnUse">
<stop stop-color="#FFC444"/>
<stop offset="1" stop-color="#F36F56"/>
</linearGradient>
<linearGradient id="paint7_linear_4470_24448" x1="178.965" y1="184.496" x2="139.196" y2="244.795" gradientUnits="userSpaceOnUse">
<stop stop-color="#FFC444"/>
<stop offset="1" stop-color="#F36F56"/>
</linearGradient>
<linearGradient id="paint8_linear_4470_24448" x1="67.9534" y1="126.695" x2="72.1245" y2="136.286" gradientUnits="userSpaceOnUse">
<stop stop-color="#FFC444"/>
<stop offset="1" stop-color="#F36F56"/>
</linearGradient>
<linearGradient id="paint9_linear_4470_24448" x1="109.287" y1="225.144" x2="112.255" y2="227.115" gradientUnits="userSpaceOnUse">
<stop stop-color="#444B8C"/>
<stop offset="1" stop-color="#26264F"/>
</linearGradient>
<linearGradient id="paint10_linear_4470_24448" x1="112.162" y1="227.139" x2="111.511" y2="222.543" gradientUnits="userSpaceOnUse">
<stop stop-color="#FFC444"/>
<stop offset="1" stop-color="#F36F56"/>
</linearGradient>
<linearGradient id="paint11_linear_4470_24448" x1="109.51" y1="224.807" x2="112.478" y2="226.778" gradientUnits="userSpaceOnUse">
<stop stop-color="#444B8C"/>
<stop offset="1" stop-color="#26264F"/>
</linearGradient>
<linearGradient id="paint12_linear_4470_24448" x1="90.4552" y1="226.641" x2="93.1191" y2="229.007" gradientUnits="userSpaceOnUse">
<stop stop-color="#444B8C"/>
<stop offset="1" stop-color="#26264F"/>
</linearGradient>
<linearGradient id="paint13_linear_4470_24448" x1="93.0186" y1="229.015" x2="93.0186" y2="224.374" gradientUnits="userSpaceOnUse">
<stop stop-color="#FFC444"/>
<stop offset="1" stop-color="#F36F56"/>
</linearGradient>
<linearGradient id="paint14_linear_4470_24448" x1="90.7228" y1="226.339" x2="93.3866" y2="228.706" gradientUnits="userSpaceOnUse">
<stop stop-color="#444B8C"/>
<stop offset="1" stop-color="#26264F"/>
</linearGradient>
<linearGradient id="paint15_linear_4470_24448" x1="95.5722" y1="140.296" x2="104.44" y2="160.622" gradientUnits="userSpaceOnUse">
<stop stop-color="#FFC444"/>
<stop offset="1" stop-color="#F36F56"/>
</linearGradient>
<linearGradient id="paint16_linear_4470_24448" x1="96.7001" y1="139.689" x2="105.97" y2="160.937" gradientUnits="userSpaceOnUse">
<stop stop-color="#FFC444"/>
<stop offset="1" stop-color="#F36F56"/>
</linearGradient>
</defs>
</svg>
