<svg width="22" height="22" viewBox="0 0 22 22" fill="none" xmlns="http://www.w3.org/2000/svg">
<path d="M11 0.6875C6.82344 0.6875 3.4375 4.07344 3.4375 8.25C3.4375 13.0625 8.53188 19.4569 9.625 20.5501C10.2266 21.1516 10.5593 21.3125 11 21.3125C11.4407 21.3125 11.7734 21.1516 12.375 20.5501C13.4681 19.4569 18.5625 13.0625 18.5625 8.25C18.5625 4.07344 15.1766 0.6875 11 0.6875ZM11 11.6875C10.5485 11.6875 10.1015 11.5985 9.68442 11.4257C9.26734 11.2529 8.88838 10.9996 8.56918 10.6803C7.92452 10.0356 7.56241 9.16109 7.5625 8.24931C7.56259 7.33754 7.92488 6.46315 8.56966 5.81849C9.21445 5.17383 10.0889 4.81172 11.0007 4.81181C11.9125 4.8119 12.7869 5.17419 13.4315 5.81898C14.0762 6.46376 14.4383 7.33823 14.4382 8.25C14.4381 9.16177 14.0758 10.0362 13.431 10.6808C12.7862 11.3255 11.9118 11.6876 11 11.6875Z" fill="#0E70F8"/>
</svg>
