<svg width="24" height="24" viewBox="0 0 24 24" fill="none" xmlns="http://www.w3.org/2000/svg">
<g id="Outline/lock-open">
<path id="Vector" fill-rule="evenodd" clip-rule="evenodd" d="M12 2.75C10.2051 2.75 8.75 4.20507 8.75 6V9.25H18C19.5188 9.25 20.75 10.4812 20.75 12V20C20.75 21.5188 19.5188 22.75 18 22.75H6C4.48122 22.75 3.25 21.5188 3.25 20V12C3.25 10.4812 4.48122 9.25 6 9.25H7.25V6C7.25 3.37665 9.37665 1.25 12 1.25C14.6234 1.25 16.75 3.37665 16.75 6C16.75 6.41421 16.4142 6.75 16 6.75C15.5858 6.75 15.25 6.41421 15.25 6C15.25 4.20507 13.7949 2.75 12 2.75ZM6 10.75H8H18C18.6904 10.75 19.25 11.3096 19.25 12V20C19.25 20.6904 18.6904 21.25 18 21.25H6C5.30964 21.25 4.75 20.6904 4.75 20V12C4.75 11.3096 5.30964 10.75 6 10.75ZM12.75 15C12.75 14.5858 12.4142 14.25 12 14.25C11.5858 14.25 11.25 14.5858 11.25 15V17C11.25 17.4142 11.5858 17.75 12 17.75C12.4142 17.75 12.75 17.4142 12.75 17V15Z" fill="#64748B"/>
</g>
</svg>
