<svg width="61" height="48" viewBox="0 0 61 48" fill="none" xmlns="http://www.w3.org/2000/svg">
<g id="Group 1171275064">
<path id="Vector (Stroke)" fill-rule="evenodd" clip-rule="evenodd" d="M29.6341 23.1566C30.1185 22.6926 30.9037 22.6926 31.3881 23.1566L41.9715 33.2966C42.4558 33.7606 42.4558 34.513 41.9715 34.977C41.4871 35.4411 40.7018 35.4411 40.2175 34.977L31.7513 26.8656V46.8117C31.7513 47.468 31.1961 48 30.5111 48C29.8261 48 29.2709 47.468 29.2709 46.8117V26.8656L20.8047 34.977C20.3204 35.4411 19.5351 35.4411 19.0508 34.977C18.5664 34.513 18.5664 33.7606 19.0508 33.2966L29.6341 23.1566Z" fill="#64748B"/>
<path id="Vector (Stroke)_2" fill-rule="evenodd" clip-rule="evenodd" d="M21.7343 0.0145579C25.119 -0.104922 28.4879 0.512302 31.5877 1.81983C34.6876 3.12735 37.4377 5.09115 39.6314 7.56358C41.6163 9.80068 43.0988 12.4015 43.9911 15.2037H46.3868C49.6015 15.2057 52.724 16.2334 55.2614 18.1245C57.7988 20.0156 59.6067 22.6625 60.3996 25.6473C61.1926 28.6322 60.9255 31.785 59.6405 34.6083C58.3554 37.4316 56.1257 39.7644 53.3032 41.2387C52.7018 41.5528 51.9485 41.3404 51.6206 40.7642C51.2928 40.188 51.5145 39.4662 52.1159 39.1521C54.4546 37.9306 56.3021 35.9976 57.3668 33.6583C58.4315 31.3191 58.6528 28.7067 57.9958 26.2335C57.3388 23.7604 55.8408 21.5672 53.7384 20.0003C51.6362 18.4336 49.0493 17.5821 46.386 17.5802C46.3857 17.5802 46.3854 17.5802 46.3852 17.5802L46.386 17.5802M46.3852 17.5802L43.0522 17.5802C42.4868 17.5802 41.993 17.2138 41.8515 16.6894C41.0975 13.8954 39.6923 11.3016 37.7415 9.10283C35.7907 6.9041 33.345 5.15769 30.5883 3.99491C27.8316 2.83213 24.8356 2.28324 21.8256 2.38949C18.8157 2.49575 15.87 3.25438 13.2101 4.60837C10.5502 5.96236 8.24522 7.87646 6.46855 10.2068C4.69188 12.5371 3.48971 15.223 2.95242 18.0625C2.41513 20.9021 2.55669 23.8213 3.36648 26.6009C4.17626 29.3805 5.63319 31.948 7.62773 34.1104C8.0813 34.6022 8.03292 35.3531 7.51965 35.7877C7.00638 36.2223 6.2226 36.1759 5.76902 35.6842C3.5262 33.2525 1.88791 30.3654 0.977325 27.2398C0.0667395 24.1143 -0.0924494 20.8316 0.511727 17.6386C1.1159 14.4456 2.46772 11.4253 4.46555 8.80495C6.46339 6.18455 9.05524 4.03218 12.0463 2.50965C15.0373 0.987112 18.3496 0.134038 21.7343 0.0145579" fill="#64748B"/>
</g>
</svg>
