<svg width="111" height="78" viewBox="0 0 111 78" fill="none" xmlns="http://www.w3.org/2000/svg">
<path opacity="0.4" d="M104.965 35.9824C105.263 36.271 105.737 36.271 106.035 35.9824C106.247 35.7774 106.557 35.7115 106.834 35.8125C107.224 35.9548 107.657 35.7622 107.812 35.3772C107.922 35.1038 108.179 34.9173 108.473 34.897C108.887 34.8684 109.204 34.5165 109.189 34.1016C109.179 33.807 109.337 33.5323 109.598 33.3941C109.964 33.1995 110.111 32.7491 109.928 32.3761C109.799 32.1113 109.832 31.7958 110.014 31.5637C110.27 31.2368 110.22 30.7658 109.902 30.4992C109.676 30.3099 109.578 30.0082 109.649 29.7223C109.75 29.3196 109.513 28.9095 109.114 28.7953C108.831 28.7143 108.619 28.4786 108.568 28.1883C108.496 27.7794 108.113 27.501 107.702 27.5591C107.41 27.6004 107.12 27.4714 106.955 27.2269C106.724 26.8825 106.26 26.784 105.908 27.0043C105.659 27.1607 105.341 27.1607 105.092 27.0043C104.74 26.784 104.276 26.8825 104.045 27.2269C103.88 27.4714 103.59 27.6004 103.298 27.5591C102.887 27.501 102.504 27.7794 102.432 28.1883C102.381 28.4786 102.169 28.7143 101.886 28.7953C101.487 28.9095 101.25 29.3196 101.351 29.7223C101.422 30.0082 101.324 30.3099 101.098 30.4992C100.78 30.7658 100.73 31.2368 100.986 31.5637C101.168 31.7958 101.201 32.1113 101.072 32.3761C100.889 32.7491 101.036 33.1995 101.402 33.3941C101.663 33.5323 101.821 33.807 101.811 34.1016C101.796 34.5165 102.113 34.8684 102.527 34.897C102.821 34.9173 103.078 35.1038 103.188 35.3772C103.343 35.7622 103.776 35.9548 104.166 35.8125C104.443 35.7115 104.753 35.7774 104.965 35.9824Z" fill="#0E70F8"/>
<path opacity="0.4" d="M4.96482 17.9824C5.26323 18.271 5.73677 18.271 6.03518 17.9824C6.24705 17.7774 6.55733 17.7115 6.83423 17.8125C7.22424 17.9548 7.65684 17.7622 7.81205 17.3772C7.92225 17.1038 8.17888 16.9173 8.47293 16.897C8.88711 16.8684 9.20397 16.5165 9.18915 16.1016C9.17863 15.807 9.33723 15.5323 9.59759 15.3941C9.96432 15.1995 10.1106 14.7491 9.92836 14.3761C9.79893 14.1113 9.83209 13.7958 10.0137 13.5637C10.2696 13.2368 10.2201 12.7658 9.90186 12.4992C9.67592 12.3099 9.57789 12.0082 9.64943 11.7223C9.75018 11.3196 9.51342 10.9095 9.11424 10.7953C8.83084 10.7143 8.61859 10.4786 8.56764 10.1883C8.49587 9.77936 8.11277 9.50102 7.70169 9.55912C7.40984 9.60038 7.12005 9.47136 6.95542 9.22686C6.72354 8.88249 6.26035 8.78404 5.90845 9.00432C5.65861 9.16072 5.34139 9.16072 5.09155 9.00432C4.73965 8.78404 4.27646 8.88249 4.04458 9.22686C3.87995 9.47136 3.59016 9.60038 3.29831 9.55912C2.88723 9.50102 2.50413 9.77936 2.43236 10.1883C2.38141 10.4786 2.16916 10.7143 1.88576 10.7953C1.48658 10.9095 1.24982 11.3196 1.35057 11.7223C1.42211 12.0082 1.32408 12.3099 1.09814 12.4992C0.779894 12.7658 0.730396 13.2368 0.986256 13.5637C1.16791 13.7958 1.20107 14.1113 1.07164 14.3761C0.889353 14.7491 1.03568 15.1995 1.40241 15.3941C1.66277 15.5323 1.82137 15.807 1.81085 16.1016C1.79603 16.5165 2.11289 16.8684 2.52707 16.897C2.82112 16.9173 3.07775 17.1038 3.18795 17.3772C3.34316 17.7622 3.77576 17.9548 4.16577 17.8125C4.44267 17.7115 4.75295 17.7774 4.96482 17.9824Z" fill="#0E70F8"/>
<path d="M59.5213 15.8647C61.461 13.9886 64.539 13.9886 66.4787 15.8647C67.8558 17.1967 69.8726 17.6254 71.6725 16.9687C74.2075 16.0437 77.0194 17.2956 78.0283 19.7985C78.7446 21.5754 80.4127 22.7874 82.3241 22.9195C85.0162 23.1056 87.0758 25.393 86.9795 28.0898C86.9111 30.0045 87.942 31.7901 89.6344 32.6883C92.0181 33.9533 92.9692 36.8806 91.7843 39.3051C90.9431 41.0265 91.1586 43.077 92.3393 44.5858C94.0024 46.711 93.6807 49.7721 91.6121 51.5051C90.1434 52.7355 89.5063 54.6964 89.9713 56.555C90.6262 59.1729 89.0872 61.8385 86.4926 62.5803C84.6505 63.1069 83.2708 64.6392 82.9396 66.5262C82.4731 69.1842 79.983 70.9934 77.311 70.6157C75.414 70.3475 73.5303 71.1862 72.4602 72.7754C70.953 75.0138 67.9423 75.6537 65.6549 74.2219C64.0309 73.2053 61.9691 73.2053 60.3451 74.2219C58.0577 75.6537 55.047 75.0138 53.5398 72.7754C52.4697 71.1862 50.5861 70.3475 48.689 70.6157C46.017 70.9934 43.5269 69.1842 43.0604 66.5262C42.7292 64.6392 41.3495 63.1069 39.5074 62.5803C36.9128 61.8385 35.3738 59.1729 36.0287 56.555C36.4937 54.6964 35.8566 52.7355 34.3879 51.5051C32.3193 49.7721 31.9976 46.711 33.6607 44.5858C34.8414 43.077 35.0569 41.0265 34.2157 39.3051C33.0308 36.8806 33.9819 33.9533 36.3656 32.6883C38.058 31.7901 39.0889 30.0045 39.0205 28.0898C38.9242 25.393 40.9838 23.1056 43.6759 22.9195C45.5873 22.7874 47.2554 21.5754 47.9717 19.7985C48.9806 17.2956 51.7925 16.0437 54.3275 16.9686C56.1274 17.6254 58.1442 17.1967 59.5213 15.8647Z" fill="#0E70F8"/>
<path d="M53.5065 44.6828L59.0812 51.3108C59.4367 51.7334 60.0675 51.7879 60.4902 51.4324L74.7851 39.409" stroke="white" stroke-width="5" stroke-linecap="round"/>
<path opacity="0.4" d="M66.7324 5.24118C66.8816 5.3855 67.1184 5.3855 67.2676 5.24118C67.3735 5.13872 67.5287 5.10574 67.6671 5.15626C67.8621 5.22741 68.0784 5.13111 68.156 4.93858C68.2111 4.80189 68.3394 4.70866 68.4865 4.6985C68.6936 4.68418 68.852 4.50823 68.8446 4.30078C68.8393 4.1535 68.9186 4.01614 69.0488 3.94706C69.2322 3.84975 69.3053 3.62457 69.2142 3.43807C69.1495 3.30566 69.166 3.14792 69.2569 3.03186C69.3848 2.86838 69.3601 2.63291 69.2009 2.49961C69.088 2.40497 69.0389 2.25412 69.0747 2.11115C69.1251 1.90978 69.0067 1.70473 68.8071 1.64767C68.6654 1.60716 68.5593 1.48929 68.5338 1.34413C68.4979 1.13968 68.3064 1.00051 68.1008 1.02956C67.9549 1.05019 67.81 0.985679 67.7277 0.863432C67.6118 0.691247 67.3802 0.64202 67.2042 0.752162C67.0793 0.830359 66.9207 0.830359 66.7958 0.752162C66.6198 0.64202 66.3882 0.691247 66.2723 0.863432C66.19 0.985679 66.0451 1.05019 65.8992 1.02956C65.6936 1.00051 65.5021 1.13968 65.4662 1.34413C65.4407 1.48929 65.3346 1.60716 65.1929 1.64767C64.9933 1.70473 64.8749 1.90978 64.9253 2.11115C64.9611 2.25412 64.912 2.40497 64.7991 2.49961C64.6399 2.63291 64.6152 2.86838 64.7431 3.03186C64.834 3.14792 64.8505 3.30566 64.7858 3.43807C64.6947 3.62457 64.7678 3.84975 64.9512 3.94706C65.0814 4.01614 65.1607 4.1535 65.1554 4.30078C65.148 4.50823 65.3064 4.68418 65.5135 4.6985C65.6606 4.70866 65.7889 4.80189 65.844 4.93858C65.9216 5.13111 66.1379 5.22741 66.3329 5.15626C66.4713 5.10574 66.6265 5.13872 66.7324 5.24118Z" fill="#0E70F8"/>
<path opacity="0.4" d="M16.0719 73.0859C16.3106 73.3168 16.6894 73.3168 16.9281 73.0859C17.0976 72.9219 17.3459 72.8692 17.5674 72.95C17.8794 73.0639 18.2255 72.9098 18.3496 72.6017C18.4378 72.383 18.6431 72.2339 18.8783 72.2176C19.2097 72.1947 19.4632 71.9132 19.4513 71.5813C19.4429 71.3456 19.5698 71.1258 19.7781 71.0153C20.0715 70.8596 20.1885 70.4993 20.0427 70.2009C19.9391 69.9891 19.9657 69.7367 20.111 69.551C20.3157 69.2894 20.2761 68.9127 20.0215 68.6994C19.8407 68.5479 19.7623 68.3066 19.8195 68.0778C19.9001 67.7556 19.7107 67.4276 19.3914 67.3363C19.1647 67.2715 18.9949 67.0829 18.9541 66.8506C18.8967 66.5235 18.5902 66.3008 18.2614 66.3473C18.0279 66.3803 17.796 66.2771 17.6643 66.0815C17.4788 65.806 17.1083 65.7272 16.8268 65.9035C16.6269 66.0286 16.3731 66.0286 16.1732 65.9035C15.8917 65.7272 15.5212 65.806 15.3357 66.0815C15.204 66.2771 14.9721 66.3803 14.7386 66.3473C14.4098 66.3008 14.1033 66.5235 14.0459 66.8506C14.0051 67.0829 13.8353 67.2715 13.6086 67.3363C13.2893 67.4276 13.0999 67.7556 13.1805 68.0778C13.2377 68.3066 13.1593 68.5479 12.9785 68.6994C12.7239 68.9127 12.6843 69.2894 12.889 69.551C13.0343 69.7367 13.0609 69.9891 12.9573 70.2009C12.8115 70.4993 12.9285 70.8596 13.2219 71.0153C13.4302 71.1258 13.5571 71.3456 13.5487 71.5813C13.5368 71.9132 13.7903 72.1947 14.1217 72.2176C14.3569 72.2339 14.5622 72.383 14.6504 72.6017C14.7745 72.9098 15.1206 73.0639 15.4326 72.95C15.6541 72.8692 15.9024 72.9219 16.0719 73.0859Z" fill="#0E70F8"/>
<path opacity="0.4" d="M12.7324 41.2412C12.8816 41.3855 13.1184 41.3855 13.2676 41.2412C13.3735 41.1387 13.5287 41.1057 13.6671 41.1563C13.8621 41.2274 14.0784 41.1311 14.156 40.9386C14.2111 40.8019 14.3394 40.7087 14.4865 40.6985C14.6936 40.6842 14.852 40.5082 14.8446 40.3008C14.8393 40.1535 14.9186 40.0161 15.0488 39.9471C15.2322 39.8497 15.3053 39.6246 15.2142 39.4381C15.1495 39.3057 15.166 39.1479 15.2569 39.0319C15.3848 38.8684 15.3601 38.6329 15.2009 38.4996C15.088 38.405 15.0389 38.2541 15.0747 38.1112C15.1251 37.9098 15.0067 37.7047 14.8071 37.6477C14.6654 37.6072 14.5593 37.4893 14.5338 37.3441C14.4979 37.1397 14.3064 37.0005 14.1008 37.0296C13.9549 37.0502 13.81 36.9857 13.7277 36.8634C13.6118 36.6912 13.3802 36.642 13.2042 36.7522C13.0793 36.8304 12.9207 36.8304 12.7958 36.7522C12.6198 36.642 12.3882 36.6912 12.2723 36.8634C12.19 36.9857 12.0451 37.0502 11.8992 37.0296C11.6936 37.0005 11.5021 37.1397 11.4662 37.3441C11.4407 37.4893 11.3346 37.6072 11.1929 37.6477C10.9933 37.7047 10.8749 37.9098 10.9253 38.1112C10.9611 38.2541 10.912 38.405 10.7991 38.4996C10.6399 38.6329 10.6152 38.8684 10.7431 39.0319C10.834 39.1479 10.8505 39.3057 10.7858 39.4381C10.6947 39.6246 10.7678 39.8497 10.9512 39.9471C11.0814 40.0161 11.1607 40.1535 11.1554 40.3008C11.148 40.5082 11.3064 40.6842 11.5135 40.6985C11.6606 40.7087 11.7889 40.8019 11.844 40.9386C11.9216 41.1311 12.1379 41.2274 12.3329 41.1563C12.4713 41.1057 12.6265 41.1387 12.7324 41.2412Z" fill="#0E70F8"/>
<path opacity="0.4" d="M102.732 68.2412C102.882 68.3855 103.118 68.3855 103.268 68.2412C103.374 68.1387 103.529 68.1057 103.667 68.1563C103.862 68.2274 104.078 68.1311 104.156 67.9386C104.211 67.8019 104.339 67.7087 104.486 67.6985C104.694 67.6842 104.852 67.5082 104.845 67.3008C104.839 67.1535 104.919 67.0161 105.049 66.9471C105.232 66.8497 105.305 66.6246 105.214 66.4381C105.149 66.3057 105.166 66.1479 105.257 66.0319C105.385 65.8684 105.36 65.6329 105.201 65.4996C105.088 65.405 105.039 65.2541 105.075 65.1112C105.125 64.9098 105.007 64.7047 104.807 64.6477C104.665 64.6072 104.559 64.4893 104.534 64.3441C104.498 64.1397 104.306 64.0005 104.101 64.0296C103.955 64.0502 103.81 63.9857 103.728 63.8634C103.612 63.6912 103.38 63.642 103.204 63.7522C103.079 63.8304 102.921 63.8304 102.796 63.7522C102.62 63.642 102.388 63.6912 102.272 63.8634C102.19 63.9857 102.045 64.0502 101.899 64.0296C101.694 64.0005 101.502 64.1397 101.466 64.3441C101.441 64.4893 101.335 64.6072 101.193 64.6477C100.993 64.7047 100.875 64.9098 100.925 65.1112C100.961 65.2541 100.912 65.405 100.799 65.4996C100.64 65.6329 100.615 65.8684 100.743 66.0319C100.834 66.1479 100.851 66.3057 100.786 66.4381C100.695 66.6246 100.768 66.8497 100.951 66.9471C101.081 67.0161 101.161 67.1535 101.155 67.3008C101.148 67.5082 101.306 67.6842 101.514 67.6985C101.661 67.7087 101.789 67.8019 101.844 67.9386C101.922 68.1311 102.138 68.2274 102.333 68.1563C102.471 68.1057 102.626 68.1387 102.732 68.2412Z" fill="#0E70F8"/>
</svg>
