<svg width="78" height="78" viewBox="0 0 78 78" fill="none" xmlns="http://www.w3.org/2000/svg">
<g clip-path="url(#clip0_4470_24630)">
<path d="M66.5797 11.4224C51.3491 -3.80661 26.6547 -3.80831 11.4224 11.4224C-3.80831 26.653 -3.80661 51.3474 11.4224 66.5797C26.653 81.807 51.3474 81.8087 66.5797 66.5797C81.8087 51.3474 81.807 26.6547 66.5797 11.4224ZM44.0864 55.9579C44.0864 58.7677 41.8091 61.045 38.9994 61.045C36.1896 61.045 33.9123 58.7677 33.9123 55.9579V35.6097C33.9123 32.7999 36.1896 30.5226 38.9994 30.5226C41.8091 30.5226 44.0864 32.7999 44.0864 35.6097V55.9579ZM38.9095 26.9142C35.9793 26.9142 34.0259 24.8387 34.0869 22.2765C34.0259 19.5905 35.9793 17.5777 38.9688 17.5777C41.96 17.5777 43.8524 19.5922 43.9152 22.2765C43.9135 24.8387 41.9617 26.9142 38.9095 26.9142Z" fill="#64748B"/>
</g>
<defs>
<clipPath id="clip0_4470_24630">
<rect width="78" height="78" fill="white"/>
</clipPath>
</defs>
</svg>
