<svg width="87" height="86" viewBox="0 0 87 86" fill="none" xmlns="http://www.w3.org/2000/svg">
<g id="unlock 1">
<g id="Group">
<path id="Vector" fill-rule="evenodd" clip-rule="evenodd" d="M11.25 44.791C11.25 38.8538 16.063 34.041 22 34.041H65C70.9372 34.041 75.75 38.8538 75.75 44.791V68.0827C75.75 74.0199 70.9372 78.8327 65 78.8327H22C16.063 78.8327 11.25 74.0199 11.25 68.0827V44.791ZM43.5 42.9993C38.5525 42.9993 34.5417 47.0102 34.5417 51.9577C34.5417 55.6313 36.7526 58.7882 39.9167 60.1707V66.291H47.0833V60.1707C50.2474 58.7882 52.4583 55.6313 52.4583 51.9577C52.4583 47.0102 48.4475 42.9993 43.5 42.9993Z" fill="#0E70F8"/>
<path id="Vector_2" fill-rule="evenodd" clip-rule="evenodd" d="M22 21.4997C22 11.6046 30.0216 3.58301 39.9167 3.58301H47.0833C56.9783 3.58301 65 11.6046 65 21.4997V23.2913H57.8333V21.4997C57.8333 15.5626 53.0206 10.7497 47.0833 10.7497H39.9167C33.9796 10.7497 29.1667 15.5626 29.1667 21.4997V37.6247H22V21.4997Z" fill="#0E70F8"/>
</g>
</g>
</svg>
