<svg width="13" height="12" viewBox="0 0 13 12" fill="none" xmlns="http://www.w3.org/2000/svg">
<path d="M1.49933 11.9978C1.27644 11.9978 1.05355 11.9128 0.883594 11.7429C0.543685 11.403 0.543685 10.8517 0.883594 10.5114L11.1404 0.254932C11.4803 -0.0849772 12.0316 -0.0849772 12.3719 0.254932C12.7118 0.59484 12.7118 1.14615 12.3719 1.4864L2.11472 11.7429C1.94476 11.9128 1.72222 11.9978 1.49933 11.9978Z" fill="white"/>
<path d="M11.7558 12.0001C11.5329 12.0001 11.31 11.9151 11.1401 11.7452L0.883594 1.48836C0.543685 1.14845 0.543685 0.597142 0.883594 0.256885C1.2235 -0.0830241 1.77481 -0.0830241 2.11507 0.256885L12.3719 10.5137C12.7118 10.8536 12.7118 11.4049 12.3719 11.7452C12.2016 11.9151 11.9787 12.0001 11.7558 12.0001Z" fill="white"/>
</svg>
